<?xml version="1.0" encoding="UTF-8"?> <svg xmlns="http://www.w3.org/2000/svg" width="169" height="149" viewBox="0 0 169 149" fill="none"> <path d="M4.32378 72.4266C3.77005 72.3926 3.24299 72.314 2.83589 72.2049C2.42879 72.0958 2.16753 71.963 2.09856 71.8301C2.02959 71.6972 2.15708 71.5727 2.45867 71.4786C2.76027 71.3844 3.21671 71.3267 3.74701 71.3156C53.8486 70.0868 117.782 71.9356 165.875 80.2318C166.157 80.2877 166.374 80.3607 166.492 80.4398C166.61 80.5189 166.624 80.5998 166.532 80.6702C166.439 80.7407 166.245 80.7969 165.979 80.8303C165.713 80.8636 165.389 80.8724 165.056 80.8552C111.096 76.5646 57.614 76.6374 4.32378 72.4266Z" fill="#2E3B80"></path> <path d="M39.4497 82.7145C39.2454 82.7019 39.051 82.6729 38.9008 82.6327C38.7506 82.5924 38.6543 82.5434 38.6288 82.4944C38.6034 82.4454 38.6504 82.3994 38.7617 82.3647C38.8729 82.33 39.0413 82.3087 39.2369 82.3046C57.7198 81.8513 81.3052 82.5333 99.0474 85.5939C99.1513 85.6145 99.2311 85.6414 99.2748 85.6706C99.3185 85.6998 99.3236 85.7296 99.2895 85.7556C99.2553 85.7816 99.1837 85.8023 99.0855 85.8146C98.9873 85.8269 98.8677 85.8302 98.7451 85.8238C78.839 84.241 59.1089 84.2679 39.4497 82.7145Z" fill="#2E3B80"></path> </svg> 