<?xml version="1.0" encoding="UTF-8"?> <svg xmlns="http://www.w3.org/2000/svg" width="608" height="115" viewBox="0 0 608 115" fill="none"> <path d="M53.46 0.176793C69.9 0.176793 82.74 5.15679 91.98 15.1168C101.34 24.9568 106.02 38.9968 106.02 57.2368C106.02 75.5968 101.34 89.6968 91.98 99.5368C82.74 109.377 69.9 114.297 53.46 114.297C37.02 114.297 24.12 109.377 14.76 99.5368C5.52 89.6968 0.9 75.5968 0.9 57.2368C0.9 38.9968 5.52 24.9568 14.76 15.1168C24.12 5.15679 37.02 0.176793 53.46 0.176793ZM55.62 104.037C58.74 104.037 61.08 100.317 62.64 92.8768C64.32 85.3168 64.8 73.4368 64.08 57.2368C63.36 41.0368 61.86 29.2168 59.58 21.7768C57.3 14.2168 54.6 10.4368 51.48 10.4368C48.36 10.4368 45.96 14.2168 44.28 21.7768C42.72 29.2168 42.3 41.0368 43.02 57.2368C43.74 73.4368 45.24 85.3168 47.52 92.8768C49.8 100.317 52.5 104.037 55.62 104.037ZM209.295 73.6168C210.495 73.6168 211.335 74.1568 211.815 75.2368C212.415 76.3168 212.715 77.6968 212.715 79.3768C212.715 84.5368 212.295 89.2768 211.455 93.5968C210.615 97.7968 209.235 101.457 207.315 104.577C205.515 107.697 202.995 110.157 199.755 111.957C196.635 113.637 192.735 114.477 188.055 114.477C184.095 114.477 180.735 113.937 177.975 112.857C175.215 111.657 172.935 110.157 171.135 108.357C169.455 106.557 168.195 104.517 167.355 102.237C166.635 99.8368 166.275 97.4368 166.275 95.0368C166.275 93.2368 166.395 91.3168 166.635 89.2768C166.875 87.2368 167.115 85.1968 167.355 83.1568C167.715 81.1168 168.015 79.1368 168.255 77.2168C168.495 75.2968 168.615 73.5568 168.615 71.9968C168.615 69.2368 167.835 66.9568 166.275 65.1568C164.715 63.3568 161.235 62.4568 155.835 62.4568H152.415V84.5968C152.415 87.4768 152.835 89.6968 153.675 91.2568C154.635 92.8168 155.655 94.1968 156.735 95.3968C157.815 96.5968 158.775 97.9168 159.615 99.3568C160.575 100.677 161.055 102.597 161.055 105.117C161.055 107.997 160.335 110.097 158.895 111.417C157.575 112.617 155.595 113.217 152.955 113.217H116.775C114.135 113.217 112.095 112.617 110.655 111.417C109.335 110.097 108.675 107.997 108.675 105.117C108.675 102.597 109.035 100.677 109.755 99.3568C110.595 97.9168 111.495 96.5968 112.455 95.3968C113.415 94.1968 114.255 92.8168 114.975 91.2568C115.815 89.6968 116.235 87.4768 116.235 84.5968V26.2768C116.235 23.7568 115.815 21.8368 114.975 20.5168C114.255 19.1968 113.415 17.9968 112.455 16.9168C111.495 15.8368 110.595 14.6968 109.755 13.4968C109.035 12.2968 108.675 10.6168 108.675 8.45679C108.675 5.93679 109.455 4.13679 111.015 3.05679C112.575 1.85679 114.675 1.25679 117.315 1.25679H168.975C181.215 1.25679 190.575 3.95679 197.055 9.35679C203.655 14.6368 206.955 21.5368 206.955 30.0568C206.955 35.8168 205.335 40.9168 202.095 45.3568C198.855 49.7968 194.115 53.1568 187.875 55.4368C190.875 55.5568 193.335 56.0368 195.255 56.8768C197.295 57.7168 198.855 58.7968 199.935 60.1168C201.135 61.3168 201.975 62.7568 202.455 64.4368C202.935 65.9968 203.175 67.6168 203.175 69.2968C203.175 70.4968 203.115 71.9368 202.995 73.6168C202.875 75.1768 202.695 76.7968 202.455 78.4768C202.335 80.1568 202.215 81.8368 202.095 83.5168C201.975 85.0768 201.915 86.3968 201.915 87.4768C201.915 88.1968 202.035 89.0968 202.275 90.1768C202.515 91.1368 203.175 91.6168 204.255 91.6168C206.055 91.6168 206.955 90.1168 206.955 87.1168C206.955 85.4368 206.835 83.9968 206.595 82.7968C206.475 81.4768 206.415 79.8568 206.415 77.9368C206.415 76.7368 206.655 75.7168 207.135 74.8768C207.615 74.0368 208.335 73.6168 209.295 73.6168ZM154.755 52.1968C159.795 52.1968 163.455 50.4568 165.735 46.9768C168.015 43.4968 168.615 38.4568 167.535 31.8568C166.575 25.8568 164.595 21.1768 161.595 17.8168C158.715 14.3368 155.655 12.2968 152.415 11.6968V52.1968H154.755ZM307.195 85.3168C308.155 87.8368 309.175 89.8768 310.255 91.4368C311.335 92.9968 312.295 94.4368 313.135 95.7568C314.095 96.9568 314.875 98.2768 315.475 99.7168C316.075 101.037 316.375 102.777 316.375 104.937C316.375 107.697 315.595 109.797 314.035 111.237C312.595 112.557 310.855 113.217 308.815 113.217H271.915C268.915 113.217 266.695 112.497 265.255 111.057C263.935 109.617 263.275 107.157 263.275 103.677C263.275 101.157 263.575 99.1168 264.175 97.5568C264.775 95.9968 265.315 94.3168 265.795 92.5168C266.275 90.7168 266.455 88.6168 266.335 86.2168C266.335 83.8168 265.615 80.5768 264.175 76.4968L262.735 72.5368H244.555C245.275 77.0968 246.235 80.8168 247.435 83.6968C248.635 86.5768 249.775 89.1568 250.855 91.4368C252.055 93.7168 253.075 95.9968 253.915 98.2768C254.755 100.557 255.175 103.377 255.175 106.737C255.175 109.137 254.455 110.817 253.015 111.777C251.695 112.737 249.535 113.217 246.535 113.217H220.255C218.215 113.217 216.475 112.677 215.035 111.597C213.595 110.397 212.875 108.717 212.875 106.557C212.875 104.277 213.355 102.057 214.315 99.8968C215.275 97.7368 216.415 95.4568 217.735 93.0568C219.055 90.6568 220.435 88.0168 221.875 85.1368C223.435 82.2568 224.815 78.9568 226.015 75.2368L240.955 28.2568C241.555 25.8568 241.675 23.9968 241.315 22.6768C241.075 21.2368 240.595 19.9168 239.875 18.7168C239.275 17.5168 238.675 16.2568 238.075 14.9368C237.475 13.6168 237.175 11.8168 237.175 9.53679C237.175 6.77679 237.895 4.73679 239.335 3.41679C240.775 1.97679 242.515 1.25679 244.555 1.25679H272.275C274.915 1.25679 276.835 1.85679 278.035 3.05679C279.355 4.13679 280.375 5.75679 281.095 7.91679L307.195 85.3168ZM259.315 62.2768L248.695 30.7768C247.015 36.0568 245.755 41.2768 244.915 46.4368C244.075 51.4768 243.655 56.7568 243.655 62.2768H259.315ZM410.186 7.91679C410.186 10.3168 409.766 12.4768 408.926 14.3968C408.206 16.3168 407.366 18.2968 406.406 20.3368C405.566 22.3768 404.726 24.7168 403.886 27.3568C403.166 29.8768 402.806 33.0568 402.806 36.8968V84.5968C402.806 87.4768 403.166 89.6968 403.886 91.2568C404.726 92.8168 405.566 94.1968 406.406 95.3968C407.366 96.4768 408.206 97.7368 408.926 99.1768C409.766 100.497 410.186 102.417 410.186 104.937C410.186 107.937 409.406 110.097 407.846 111.417C406.406 112.617 404.306 113.217 401.546 113.217H377.426C374.786 113.217 372.806 112.497 371.486 111.057C370.286 109.617 369.266 108.177 368.426 106.737L335.126 41.0368C335.006 42.7168 334.886 44.3368 334.766 45.8968C334.766 47.4568 334.766 48.9568 334.766 50.3968C334.766 55.6768 335.306 60.3568 336.386 64.4368C337.466 68.5168 338.786 72.1768 340.346 75.4168C341.906 78.6568 343.586 81.5968 345.386 84.2368C347.306 86.8768 349.046 89.3968 350.606 91.7968C352.166 94.1968 353.486 96.5968 354.566 98.9968C355.646 101.397 356.186 103.977 356.186 106.737C356.186 109.137 355.466 110.817 354.026 111.777C352.706 112.737 350.546 113.217 347.546 113.217H326.846C324.206 113.217 322.106 112.737 320.546 111.777C318.986 110.697 318.206 109.017 318.206 106.737C318.206 104.337 318.566 102.177 319.286 100.257C320.126 98.3368 321.026 96.3568 321.986 94.3168C322.946 92.1568 323.786 89.8168 324.506 87.2968C325.346 84.6568 325.766 81.4768 325.766 77.7568V30.0568C325.766 27.1768 325.346 24.9568 324.506 23.3968C323.786 21.8368 322.946 20.4568 321.986 19.2568C321.026 18.0568 320.126 16.7968 319.286 15.4768C318.566 14.0368 318.206 12.0568 318.206 9.53679C318.206 6.53679 318.986 4.4368 320.546 3.2368C322.106 1.91679 324.206 1.25679 326.846 1.25679H350.966C353.606 1.25679 355.526 1.97679 356.726 3.41679C357.926 4.73679 359.006 6.23679 359.966 7.91679L393.266 73.4368C393.386 71.8768 393.446 70.3168 393.446 68.7568C393.566 67.1968 393.626 65.6368 393.626 64.0768C393.626 56.1568 392.486 49.5568 390.206 44.2768C388.046 38.8768 385.586 34.1968 382.826 30.2368C380.186 26.1568 377.726 22.4368 375.446 19.0768C373.286 15.7168 372.206 11.9968 372.206 7.91679C372.206 5.51679 372.926 3.83679 374.366 2.87679C375.806 1.79679 378.026 1.25679 381.026 1.25679H401.546C404.306 1.25679 406.406 1.79679 407.846 2.87679C409.406 3.83679 410.186 5.51679 410.186 7.91679ZM509.587 56.1568C512.227 56.1568 514.327 56.8168 515.887 58.1368C517.447 59.3368 518.227 61.3768 518.227 64.2568C518.227 66.7768 517.807 68.7568 516.967 70.1968C516.247 71.5168 515.407 72.7768 514.447 73.9768C513.487 75.1768 512.587 76.5568 511.747 78.1168C511.027 79.6768 510.667 81.8968 510.667 84.7768V106.557C510.667 108.957 509.767 110.697 507.967 111.777C506.287 112.737 504.067 113.217 501.307 113.217C498.547 113.217 496.147 113.037 494.107 112.677C492.187 112.317 490.447 111.957 488.887 111.597C487.327 111.117 485.827 110.697 484.387 110.337C483.067 109.977 481.567 109.797 479.887 109.797C478.327 109.797 476.827 110.037 475.387 110.517C473.947 110.997 472.387 111.537 470.707 112.137C469.027 112.617 466.987 113.097 464.587 113.577C462.307 114.057 459.487 114.297 456.127 114.297C450.007 114.297 444.307 113.097 439.027 110.697C433.867 108.297 429.367 104.817 425.527 100.257C421.687 95.6968 418.687 90.0568 416.527 83.3368C414.367 76.4968 413.287 68.7568 413.287 60.1168C413.287 51.4768 414.427 43.4968 416.707 36.1768C418.987 28.7368 422.347 22.3768 426.787 17.0968C431.347 11.8168 436.927 7.67679 443.527 4.67679C450.127 1.67679 457.747 0.176793 466.387 0.176793C472.867 0.176793 478.807 0.956794 484.207 2.5168C489.607 4.07679 494.227 6.35679 498.067 9.35679C502.027 12.2368 505.087 15.8368 507.247 20.1568C509.407 24.3568 510.487 29.1568 510.487 34.5568C510.487 39.5968 508.927 43.6168 505.807 46.6168C502.807 49.6168 498.247 51.1168 492.127 51.1168C486.247 51.1168 481.687 49.5568 478.447 46.4368C475.327 43.3168 473.767 39.3568 473.767 34.5568C473.767 31.3168 474.187 28.4968 475.027 26.0968C475.987 23.5768 476.467 21.1168 476.467 18.7168C476.467 16.1968 475.807 14.2168 474.487 12.7768C473.167 11.2168 471.127 10.4368 468.367 10.4368C465.247 10.4368 462.547 11.7568 460.267 14.3968C458.107 16.9168 456.367 20.4568 455.047 25.0168C453.727 29.5768 452.827 34.9768 452.347 41.2168C451.987 47.3368 452.107 53.9968 452.707 61.1968C453.307 68.8768 454.147 75.2968 455.227 80.4568C456.427 85.6168 457.747 89.7568 459.187 92.8768C460.627 95.9968 462.127 98.2768 463.687 99.7168C465.247 101.037 466.747 101.697 468.187 101.697C469.747 101.697 470.887 101.037 471.607 99.7168C472.327 98.2768 472.687 95.4568 472.687 91.2568V84.7768C472.687 81.8968 472.267 79.6768 471.427 78.1168C470.707 76.5568 469.867 75.1768 468.907 73.9768C467.947 72.7768 467.047 71.5168 466.207 70.1968C465.487 68.7568 465.127 66.7768 465.127 64.2568C465.127 61.3768 465.907 59.3368 467.467 58.1368C469.027 56.8168 471.127 56.1568 473.767 56.1568H509.587ZM599.965 74.8768C602.725 74.8768 604.645 75.5968 605.725 77.0368C606.925 78.4768 607.405 80.4568 607.165 82.9768L605.005 106.197C604.765 108.717 603.925 110.517 602.485 111.597C601.165 112.677 599.005 113.217 596.005 113.217H527.065C524.305 113.217 522.145 112.617 520.585 111.417C519.145 110.097 518.425 107.937 518.425 104.937C518.425 102.417 518.785 100.497 519.505 99.1768C520.345 97.7368 521.185 96.4768 522.025 95.3968C522.985 94.1968 523.825 92.8168 524.545 91.2568C525.385 89.6968 525.805 87.4768 525.805 84.5968V30.0568C525.805 27.1768 525.385 24.9568 524.545 23.3968C523.825 21.8368 522.985 20.4568 522.025 19.2568C521.185 18.0568 520.345 16.7968 519.505 15.4768C518.785 14.0368 518.425 12.0568 518.425 9.53679C518.425 6.53679 519.145 4.4368 520.585 3.2368C522.145 1.91679 524.305 1.25679 527.065 1.25679H596.365C601.885 1.25679 604.765 3.47679 605.005 7.91679L606.085 27.5368C606.325 30.0568 605.725 32.1568 604.285 33.8368C602.965 35.3968 600.805 36.1768 597.805 36.1768C593.965 36.1768 590.965 34.9168 588.805 32.3968C586.645 29.7568 584.605 26.9368 582.685 23.9368C580.885 20.8168 578.785 17.9968 576.385 15.4768C574.105 12.8368 570.925 11.5168 566.845 11.5168H563.785V50.9368H567.025C569.425 50.9368 571.225 50.3968 572.425 49.3168C573.625 48.1168 574.705 46.8568 575.665 45.5368C576.745 44.2168 577.825 43.0168 578.905 41.9368C579.985 40.7368 581.485 40.1368 583.405 40.1368C585.805 40.1368 587.485 40.9168 588.445 42.4768C589.525 43.9168 590.065 46.0168 590.065 48.7768V63.5368C590.065 66.1768 589.525 68.2768 588.445 69.8368C587.485 71.3968 585.805 72.1768 583.405 72.1768C581.485 72.1768 579.985 71.6368 578.905 70.5568C577.825 69.3568 576.745 68.0968 575.665 66.7768C574.705 65.3368 573.625 64.0768 572.425 62.9968C571.225 61.7968 569.425 61.1968 567.025 61.1968H563.785V102.957H566.845C569.365 102.957 571.525 102.297 573.325 100.977C575.245 99.5368 576.985 97.7968 578.545 95.7568C580.105 93.5968 581.605 91.3168 583.045 88.9168C584.485 86.5168 585.985 84.2968 587.545 82.2568C589.225 80.0968 591.025 78.3568 592.945 77.0368C594.985 75.5968 597.325 74.8768 599.965 74.8768Z" fill="#2E3B80"></path> </svg> 