<?xml version="1.0" encoding="UTF-8"?> <svg xmlns="http://www.w3.org/2000/svg" width="470" height="115" viewBox="0 0 470 115" fill="none"> <path d="M96.38 56.1568C99.02 56.1568 101.12 56.8168 102.68 58.1368C104.24 59.3368 105.02 61.3768 105.02 64.2568C105.02 66.7768 104.6 68.7568 103.76 70.1968C103.04 71.5168 102.2 72.7768 101.24 73.9768C100.28 75.1768 99.38 76.5568 98.54 78.1168C97.82 79.6768 97.46 81.8968 97.46 84.7768V106.557C97.46 108.957 96.56 110.697 94.76 111.777C93.08 112.737 90.86 113.217 88.1 113.217C85.34 113.217 82.94 113.037 80.9 112.677C78.98 112.317 77.24 111.957 75.68 111.597C74.12 111.117 72.62 110.697 71.18 110.337C69.86 109.977 68.36 109.797 66.68 109.797C65.12 109.797 63.62 110.037 62.18 110.517C60.74 110.997 59.18 111.537 57.5 112.137C55.82 112.617 53.78 113.097 51.38 113.577C49.1 114.057 46.28 114.297 42.92 114.297C36.8 114.297 31.1 113.097 25.82 110.697C20.66 108.297 16.16 104.817 12.32 100.257C8.48 95.6968 5.48 90.0568 3.32 83.3368C1.16 76.4968 0.08 68.7568 0.08 60.1168C0.08 51.4768 1.22 43.4968 3.5 36.1768C5.78 28.7368 9.14 22.3768 13.58 17.0968C18.14 11.8168 23.72 7.67679 30.32 4.67679C36.92 1.67679 44.54 0.176793 53.18 0.176793C59.66 0.176793 65.6 0.956794 71 2.5168C76.4 4.07679 81.02 6.35679 84.86 9.35679C88.82 12.2368 91.88 15.8368 94.04 20.1568C96.2 24.3568 97.28 29.1568 97.28 34.5568C97.28 39.5968 95.72 43.6168 92.6 46.6168C89.6 49.6168 85.04 51.1168 78.92 51.1168C73.04 51.1168 68.48 49.5568 65.24 46.4368C62.12 43.3168 60.56 39.3568 60.56 34.5568C60.56 31.3168 60.98 28.4968 61.82 26.0968C62.78 23.5768 63.26 21.1168 63.26 18.7168C63.26 16.1968 62.6 14.2168 61.28 12.7768C59.96 11.2168 57.92 10.4368 55.16 10.4368C52.04 10.4368 49.34 11.7568 47.06 14.3968C44.9 16.9168 43.16 20.4568 41.84 25.0168C40.52 29.5768 39.62 34.9768 39.14 41.2168C38.78 47.3368 38.9 53.9968 39.5 61.1968C40.1 68.8768 40.94 75.2968 42.02 80.4568C43.22 85.6168 44.54 89.7568 45.98 92.8768C47.42 95.9968 48.92 98.2768 50.48 99.7168C52.04 101.037 53.54 101.697 54.98 101.697C56.54 101.697 57.68 101.037 58.4 99.7168C59.12 98.2768 59.48 95.4568 59.48 91.2568V84.7768C59.48 81.8968 59.06 79.6768 58.22 78.1168C57.5 76.5568 56.66 75.1768 55.7 73.9768C54.74 72.7768 53.84 71.5168 53 70.1968C52.28 68.7568 51.92 66.7768 51.92 64.2568C51.92 61.3768 52.7 59.3368 54.26 58.1368C55.82 56.8168 57.92 56.1568 60.56 56.1568H96.38ZM205.658 73.6168C206.858 73.6168 207.698 74.1568 208.178 75.2368C208.778 76.3168 209.078 77.6968 209.078 79.3768C209.078 84.5368 208.658 89.2768 207.818 93.5968C206.978 97.7968 205.598 101.457 203.678 104.577C201.878 107.697 199.358 110.157 196.118 111.957C192.998 113.637 189.098 114.477 184.418 114.477C180.458 114.477 177.098 113.937 174.338 112.857C171.578 111.657 169.298 110.157 167.498 108.357C165.818 106.557 164.558 104.517 163.718 102.237C162.998 99.8368 162.638 97.4368 162.638 95.0368C162.638 93.2368 162.758 91.3168 162.998 89.2768C163.238 87.2368 163.478 85.1968 163.718 83.1568C164.078 81.1168 164.378 79.1368 164.618 77.2168C164.858 75.2968 164.978 73.5568 164.978 71.9968C164.978 69.2368 164.198 66.9568 162.638 65.1568C161.078 63.3568 157.598 62.4568 152.198 62.4568H148.778V84.5968C148.778 87.4768 149.198 89.6968 150.038 91.2568C150.998 92.8168 152.018 94.1968 153.098 95.3968C154.178 96.5968 155.138 97.9168 155.978 99.3568C156.938 100.677 157.418 102.597 157.418 105.117C157.418 107.997 156.698 110.097 155.258 111.417C153.938 112.617 151.958 113.217 149.318 113.217H113.138C110.498 113.217 108.458 112.617 107.018 111.417C105.698 110.097 105.038 107.997 105.038 105.117C105.038 102.597 105.398 100.677 106.118 99.3568C106.958 97.9168 107.858 96.5968 108.818 95.3968C109.778 94.1968 110.618 92.8168 111.338 91.2568C112.178 89.6968 112.598 87.4768 112.598 84.5968V26.2768C112.598 23.7568 112.178 21.8368 111.338 20.5168C110.618 19.1968 109.778 17.9968 108.818 16.9168C107.858 15.8368 106.958 14.6968 106.118 13.4968C105.398 12.2968 105.038 10.6168 105.038 8.45679C105.038 5.93679 105.818 4.13679 107.378 3.05679C108.938 1.85679 111.038 1.25679 113.678 1.25679H165.338C177.578 1.25679 186.938 3.95679 193.418 9.35679C200.018 14.6368 203.318 21.5368 203.318 30.0568C203.318 35.8168 201.698 40.9168 198.458 45.3568C195.218 49.7968 190.478 53.1568 184.238 55.4368C187.238 55.5568 189.698 56.0368 191.618 56.8768C193.658 57.7168 195.218 58.7968 196.298 60.1168C197.498 61.3168 198.338 62.7568 198.818 64.4368C199.298 65.9968 199.538 67.6168 199.538 69.2968C199.538 70.4968 199.478 71.9368 199.358 73.6168C199.238 75.1768 199.058 76.7968 198.818 78.4768C198.698 80.1568 198.578 81.8368 198.458 83.5168C198.338 85.0768 198.278 86.3968 198.278 87.4768C198.278 88.1968 198.398 89.0968 198.638 90.1768C198.878 91.1368 199.538 91.6168 200.618 91.6168C202.418 91.6168 203.318 90.1168 203.318 87.1168C203.318 85.4368 203.198 83.9968 202.958 82.7968C202.838 81.4768 202.778 79.8568 202.778 77.9368C202.778 76.7368 203.018 75.7168 203.498 74.8768C203.978 74.0368 204.698 73.6168 205.658 73.6168ZM151.118 52.1968C156.158 52.1968 159.818 50.4568 162.098 46.9768C164.378 43.4968 164.978 38.4568 163.898 31.8568C162.938 25.8568 160.958 21.1768 157.958 17.8168C155.078 14.3368 152.018 12.2968 148.778 11.6968V52.1968H151.118ZM263.959 9.53679C263.959 12.0568 263.539 14.0368 262.699 15.4768C261.979 16.7968 261.139 18.0568 260.179 19.2568C259.219 20.4568 258.319 21.8368 257.479 23.3968C256.759 24.9568 256.399 27.1768 256.399 30.0568V84.5968C256.399 87.4768 256.759 89.6968 257.479 91.2568C258.319 92.8168 259.219 94.1968 260.179 95.3968C261.139 96.4768 261.979 97.7368 262.699 99.1768C263.539 100.497 263.959 102.417 263.959 104.937C263.959 107.937 263.179 110.097 261.619 111.417C260.059 112.617 257.959 113.217 255.319 113.217H219.679C216.919 113.217 214.759 112.617 213.199 111.417C211.759 110.097 211.039 107.937 211.039 104.937C211.039 102.417 211.399 100.497 212.119 99.1768C212.959 97.7368 213.799 96.4768 214.639 95.3968C215.599 94.1968 216.439 92.8168 217.159 91.2568C217.999 89.6968 218.419 87.4768 218.419 84.5968V30.0568C218.419 27.1768 217.999 24.9568 217.159 23.3968C216.439 21.8368 215.599 20.4568 214.639 19.2568C213.799 18.0568 212.959 16.7968 212.119 15.4768C211.399 14.0368 211.039 12.0568 211.039 9.53679C211.039 6.53679 211.759 4.4368 213.199 3.2368C214.759 1.91679 216.919 1.25679 219.679 1.25679H255.319C257.959 1.25679 260.059 1.91679 261.619 3.2368C263.179 4.4368 263.959 6.53679 263.959 9.53679ZM359.616 7.91679C359.616 10.3168 359.196 12.4768 358.356 14.3968C357.636 16.3168 356.796 18.2968 355.836 20.3368C354.996 22.3768 354.156 24.7168 353.316 27.3568C352.596 29.8768 352.236 33.0568 352.236 36.8968V84.5968C352.236 87.4768 352.596 89.6968 353.316 91.2568C354.156 92.8168 354.996 94.1968 355.836 95.3968C356.796 96.4768 357.636 97.7368 358.356 99.1768C359.196 100.497 359.616 102.417 359.616 104.937C359.616 107.937 358.836 110.097 357.276 111.417C355.836 112.617 353.736 113.217 350.976 113.217H326.856C324.216 113.217 322.236 112.497 320.916 111.057C319.716 109.617 318.696 108.177 317.856 106.737L284.556 41.0368C284.436 42.7168 284.316 44.3368 284.196 45.8968C284.196 47.4568 284.196 48.9568 284.196 50.3968C284.196 55.6768 284.736 60.3568 285.816 64.4368C286.896 68.5168 288.216 72.1768 289.776 75.4168C291.336 78.6568 293.016 81.5968 294.816 84.2368C296.736 86.8768 298.476 89.3968 300.036 91.7968C301.596 94.1968 302.916 96.5968 303.996 98.9968C305.076 101.397 305.616 103.977 305.616 106.737C305.616 109.137 304.896 110.817 303.456 111.777C302.136 112.737 299.976 113.217 296.976 113.217H276.276C273.636 113.217 271.536 112.737 269.976 111.777C268.416 110.697 267.636 109.017 267.636 106.737C267.636 104.337 267.996 102.177 268.716 100.257C269.556 98.3368 270.456 96.3568 271.416 94.3168C272.376 92.1568 273.216 89.8168 273.936 87.2968C274.776 84.6568 275.196 81.4768 275.196 77.7568V30.0568C275.196 27.1768 274.776 24.9568 273.936 23.3968C273.216 21.8368 272.376 20.4568 271.416 19.2568C270.456 18.0568 269.556 16.7968 268.716 15.4768C267.996 14.0368 267.636 12.0568 267.636 9.53679C267.636 6.53679 268.416 4.4368 269.976 3.2368C271.536 1.91679 273.636 1.25679 276.276 1.25679H300.396C303.036 1.25679 304.956 1.97679 306.156 3.41679C307.356 4.73679 308.436 6.23679 309.396 7.91679L342.696 73.4368C342.816 71.8768 342.876 70.3168 342.876 68.7568C342.996 67.1968 343.056 65.6368 343.056 64.0768C343.056 56.1568 341.916 49.5568 339.636 44.2768C337.476 38.8768 335.016 34.1968 332.256 30.2368C329.616 26.1568 327.156 22.4368 324.876 19.0768C322.716 15.7168 321.636 11.9968 321.636 7.91679C321.636 5.51679 322.356 3.83679 323.796 2.87679C325.236 1.79679 327.456 1.25679 330.456 1.25679H350.976C353.736 1.25679 355.836 1.79679 357.276 2.87679C358.836 3.83679 359.616 5.51679 359.616 7.91679ZM466.577 73.6168C468.857 73.6168 469.997 75.5368 469.997 79.3768C469.997 84.5368 469.457 89.2768 468.377 93.5968C467.417 97.7968 465.857 101.457 463.697 104.577C461.537 107.697 458.777 110.157 455.417 111.957C452.057 113.637 448.037 114.477 443.357 114.477C439.637 114.477 436.397 113.937 433.637 112.857C430.997 111.777 428.777 110.277 426.977 108.357C425.177 106.437 423.857 104.217 423.017 101.697C422.177 99.0568 421.757 96.2368 421.757 93.2368C421.757 91.1968 421.877 88.9768 422.117 86.5768C422.357 84.0568 422.597 81.5368 422.837 79.0168C423.197 76.4968 423.497 74.0968 423.737 71.8168C423.977 69.4168 424.097 67.3768 424.097 65.6968C424.097 59.9368 421.817 57.0568 417.257 57.0568C414.977 57.0568 412.997 57.7168 411.317 59.0368C409.637 60.2368 408.257 61.4368 407.177 62.6368V84.5968C407.177 87.4768 407.537 89.6968 408.257 91.2568C409.097 92.8168 409.937 94.1968 410.777 95.3968C411.737 96.5968 412.577 97.9168 413.297 99.3568C414.137 100.677 414.557 102.597 414.557 105.117C414.557 107.997 413.777 110.097 412.217 111.417C410.777 112.617 408.677 113.217 405.917 113.217H372.077C369.437 113.217 367.337 112.617 365.777 111.417C364.217 110.097 363.437 107.997 363.437 105.117C363.437 102.597 363.797 100.677 364.517 99.3568C365.357 97.9168 366.257 96.5968 367.217 95.3968C368.177 94.1968 369.017 92.8168 369.737 91.2568C370.577 89.6968 370.997 87.4768 370.997 84.5968V30.0568C370.997 27.1768 370.577 24.9568 369.737 23.3968C369.017 21.8368 368.177 20.4568 367.217 19.2568C366.257 18.0568 365.357 16.7968 364.517 15.4768C363.797 14.0368 363.437 12.0568 363.437 9.53679C363.437 6.65679 364.217 4.55679 365.777 3.2368C367.337 1.91679 369.437 1.25679 372.077 1.25679H405.917C408.677 1.25679 410.777 1.91679 412.217 3.2368C413.777 4.55679 414.557 6.65679 414.557 9.53679C414.557 12.0568 414.137 14.0368 413.297 15.4768C412.577 16.7968 411.737 18.0568 410.777 19.2568C409.937 20.4568 409.097 21.8368 408.257 23.3968C407.537 24.9568 407.177 27.1768 407.177 30.0568V52.9168C410.297 49.1968 412.697 45.7768 414.377 42.6568C416.177 39.5368 417.437 36.3568 418.157 33.1168C418.997 29.7568 419.477 26.0968 419.597 22.1368C419.717 18.1768 419.777 13.4368 419.777 7.91679C419.777 3.47679 422.477 1.25679 427.877 1.25679H457.577C459.737 1.25679 461.297 1.85679 462.257 3.05679C463.337 4.25679 463.877 5.75679 463.877 7.55679C463.877 9.59679 463.277 11.5168 462.077 13.3168C460.997 14.9968 459.317 16.9168 457.037 19.0768C454.757 21.1168 451.997 23.5168 448.757 26.2768C445.637 28.9168 441.977 32.2168 437.777 36.1768L429.497 44.0968C431.057 43.7368 432.677 43.4368 434.357 43.1968C436.157 42.9568 438.077 42.8368 440.117 42.8368C447.437 42.8368 452.717 44.5168 455.957 47.8768C459.317 51.1168 460.997 55.7968 460.997 61.9168C460.997 63.4768 460.877 65.3368 460.637 67.4968C460.517 69.6568 460.337 71.8768 460.097 74.1568C459.857 76.4368 459.617 78.6568 459.377 80.8168C459.257 82.9768 459.197 84.7768 459.197 86.2168C459.197 87.1768 459.317 88.3168 459.557 89.6368C459.797 90.9568 460.457 91.6168 461.537 91.6168C463.337 91.6168 464.237 90.1168 464.237 87.1168C464.237 85.4368 464.177 83.9968 464.057 82.7968C463.937 81.4768 463.877 79.8568 463.877 77.9368C463.877 76.7368 464.057 75.7168 464.417 74.8768C464.897 74.0368 465.617 73.6168 466.577 73.6168Z" fill="#FF6844"></path> </svg> 