<?xml version="1.0" encoding="UTF-8"?> <svg xmlns="http://www.w3.org/2000/svg" width="362" height="1587" viewBox="0 0 362 1587" fill="none"> <path d="M288.976 190.498V118.329H265.682V95.3697H361.305V262.935H33.3536C29.3006 263.159 25.2504 262.447 21.5164 260.855C17.7823 259.262 14.4643 256.832 11.8191 253.752C4.95098 245.066 0.942132 234.465 0.344246 223.407C-0.803241 209.937 1.22399 199.121 6.42593 190.957C23.0435 165.14 41.8691 140.814 62.6911 118.253H0V95.2931H86.0233C128.204 56.3378 176.879 25.0744 229.842 2.91966C238.754 -0.90691 249.731 -0.906934 262.851 2.53698C273.529 5.14213 283.17 10.9182 290.506 19.1061C296.855 26.7592 298.627 34.2721 295.822 41.6446C293.03 48.4942 286.566 54.1192 276.391 58.4433C241.421 73.3246 208.092 91.8043 176.943 113.584C145.975 135.395 118.071 161.264 93.9792 190.498H288.976Z" fill="#EEF1FF"></path> <path d="M271.898 426.386C271.898 417.041 270.03 410.908 266.293 407.987C261.599 404.739 255.935 403.194 250.24 403.606C211.805 403.606 173.42 403.606 135.087 403.606C96.753 403.606 58.3812 403.606 19.9713 403.606V331.953H73.3537C75.8711 331.453 78.4624 331.453 80.9798 331.953H308.236C317.706 331.993 326.776 335.772 333.469 342.465C340.162 349.158 343.934 358.224 343.964 367.684V373.779H344.155V449.357H184.618L190.414 454.69C192.396 456.48 194.456 458.194 196.629 459.832C215.285 475.53 235.292 489.552 256.417 501.735C277.995 514.212 300.318 525.356 323.26 535.105C333.428 539.524 339.783 545.085 342.325 551.79C345.223 559.408 343.507 566.951 337.177 574.417C329.851 582.522 320.24 588.219 309.609 590.759C296.416 594.416 285.384 594.289 276.512 590.378C253.611 580.634 231.327 569.503 209.784 557.047C188.669 544.814 168.686 530.727 150.072 514.953C126.805 495.347 105.644 473.376 86.9281 449.395H19.4375V426.539H145.611C187.732 426.437 229.828 426.386 271.898 426.386Z" fill="#EEF1FF"></path> <path d="M144.129 757.27H333.865V780.242H287.805C269.122 804.312 248.023 826.392 224.839 846.133C206.11 861.945 186.052 876.1 164.889 888.44C143.315 900.959 121.001 912.147 98.0692 921.941C89.0633 925.871 78.0984 925.999 65.1746 922.324C54.4226 920.027 44.7174 914.258 37.5462 905.899C31.097 898.241 29.3035 890.814 32.2419 883.156C34.7859 876.418 41.2606 870.828 51.6657 866.387C74.589 856.588 96.8914 845.387 118.447 832.848C139.59 820.548 159.646 806.458 178.398 790.732C183.702 786.138 187.633 782.654 190.189 780.203H144.129V757.27ZM190.189 662.012H287.805V734.183H190.189V662.012Z" fill="#EEF1FF"></path> <path d="M23.2196 993.594H324.989C329.779 993.52 334.533 994.426 338.958 996.256C343.382 998.086 347.384 1000.8 350.716 1004.23C354.083 1007.57 356.748 1011.54 358.554 1015.91C360.359 1020.29 361.269 1024.98 361.229 1029.71C361.229 1035.94 357.98 1044.24 351.481 1054.61C344.163 1066.56 335.946 1077.95 326.901 1088.66H361.305V1111.54H306.869C285.95 1135.04 263.267 1156.92 239.015 1176.98C219.023 1193.99 197.513 1209.14 174.754 1222.24C154.512 1233.44 133.643 1243.47 112.252 1252.29C103.459 1256.33 92.5264 1256.46 79.4525 1252.67C68.6344 1250.28 58.876 1244.48 51.6227 1236.12C45.2387 1228.76 43.5567 1221.37 46.462 1213.85C48.8576 1207.42 55.3435 1201.79 65.9199 1196.96C88.8693 1187.35 111.154 1176.23 132.627 1163.67C168.289 1142.92 200.782 1117.17 229.114 1087.21C239.13 1075.16 243.22 1068.53 241.309 1067.23C239.397 1065.93 231.637 1065.74 216.919 1065.74H199.946C198.91 1066.48 197.915 1067.27 196.965 1068.11C196.047 1068.95 195.091 1069.71 194.212 1070.47C175.496 1086.23 155.439 1100.33 134.271 1112.61C112.711 1125.1 90.3942 1136.24 67.449 1145.98C58.2743 1149.79 47.2265 1150.06 34.2673 1146.36C23.5863 1143.87 13.9343 1138.16 6.62862 1130C0.129903 1122.52 -1.59025 1114.99 1.46797 1107.38C4.02923 1100.67 10.4515 1095.07 20.5818 1090.64C37.8608 1083.27 55.2034 1074.97 72.6097 1065.74H22.9137L23.2196 993.594Z" fill="#EEF1FF"></path> <path d="M273.943 1413.36L361.305 1396.22V1442.35L231.026 1467.95C245.821 1483.01 263.277 1495.21 282.511 1503.91C299.57 1511.1 325.835 1514.69 361.305 1514.66V1586.81C331.93 1586.81 307.807 1586.46 288.937 1585.74C272.472 1585.4 256.103 1583.13 240.168 1578.97C226.931 1575.33 214.464 1569.31 203.372 1561.22C190.117 1551.09 177.848 1539.73 166.728 1527.29C135.923 1550.14 102.418 1569.1 66.9726 1583.75C58.2261 1587.81 47.2866 1588.06 34.1541 1584.52C23.5101 1582.05 13.906 1576.31 6.69075 1568.11C0.226519 1560.72 -1.57128 1553.15 1.37396 1545.38C4.05145 1539.18 10.5285 1533.65 20.805 1528.78C55.8155 1513.98 89.1529 1495.5 120.255 1473.65C133.876 1464.06 146.869 1453.61 159.155 1442.35H36.258V1419.4H182.372H182.564C189.551 1412 196.423 1404.19 203.18 1395.95H36.4492V1324.02H325.274C316.732 1341.04 308.24 1357.03 299.8 1372C291.359 1386.97 282.74 1400.76 273.943 1413.36Z" fill="#EEF1FF"></path> </svg> 