<?xml version="1.0" encoding="UTF-8"?> <svg xmlns="http://www.w3.org/2000/svg" width="2143" height="2187" viewBox="0 0 2143 2187" fill="none"> <path d="M2062.52 1078.42C2061.42 999.459 2151.9 909.168 2133.55 834.045C2114.93 757.88 1992.61 719.407 1957.78 650.012C1922.95 580.618 1965.27 459.275 1915.73 398.994C1866.19 338.713 1739.96 357.071 1677.73 309.028C1615.49 260.986 1602.61 134.305 1530.93 101.17C1461.47 69.0766 1355.17 140.229 1277.38 123.824C1199.58 107.419 1131.49 -1.03412 1055 0.00745277C975.971 1.11412 911.393 111.846 836.335 130.204C760.105 148.822 651.717 80.7942 582.452 115.557C513.188 150.319 502.252 278.302 441.971 327.777C381.69 377.251 254.358 362.409 206.315 424.447C159.054 485.444 204.948 604.834 171.813 676.572C139.72 745.967 18.5723 788.02 1.9723 865.813C-14.6277 943.605 78.9834 1031.55 80.0901 1108.04C81.1967 1187.01 -9.22458 1277.3 9.13309 1352.36C27.7512 1428.59 150.071 1467.06 184.898 1536.45C219.726 1605.85 177.477 1727.13 226.951 1787.47C276.426 1847.82 403.042 1829.4 465.015 1877.44C526.989 1925.48 540.334 2052.36 611.942 2085.49C681.402 2117.58 787.707 2046.43 865.825 2062.77C943.942 2079.11 1011.71 2187.7 1088.2 2186.46C1167.16 2185.35 1231.94 2074.62 1306.86 2056.26C1383.03 2037.58 1491.48 2105.67 1560.75 2070.91C1630.01 2036.15 1640.95 1908.16 1701.23 1858.69C1761.51 1809.21 1888.65 1824.06 1936.69 1762.02C1983.89 1701.02 1938.06 1581.63 1971.19 1509.89C2003.28 1440.43 2124.43 1398.38 2141.03 1320.39C2157.63 1242.41 2063.63 1154.91 2062.52 1078.42ZM1962.34 1173.47C1955.83 1242.21 2031.8 1329.7 2009.53 1398.19C1987.27 1466.67 1874.85 1492.9 1839.24 1552.21C1802.78 1613.46 1832.73 1724.91 1784.49 1775.23C1736.25 1825.55 1622.59 1801.27 1564.07 1839.81C1505.54 1878.35 1483.87 1992.01 1417.99 2016.94C1352.11 2041.88 1261.75 1970.33 1191.32 1979.84C1122.38 1989.28 1053.83 2082.56 983.001 2076.05C914.258 2069.54 863.546 1966.17 795.128 1943.97C726.71 1921.77 624.701 1975.74 565.397 1940.39C504.204 1903.87 503.553 1788.12 453.298 1740.02C403.042 1691.91 286.451 1695.29 247.913 1636.84C209.375 1578.38 258.654 1473.5 233.852 1407.56C209.049 1341.61 103.07 1295.92 93.5003 1225.81C84.1261 1156.8 173.831 1084.15 180.276 1013.19C186.786 944.451 110.816 856.959 133.08 788.476C155.344 719.993 267.963 693.693 303.312 634.454C339.832 573.197 309.821 461.683 358.124 411.428C406.427 361.172 520.023 385.388 578.481 346.85C636.94 308.312 658.747 194.456 724.627 169.653C790.506 144.851 880.862 216.329 951.233 206.759C1020.24 197.385 1088.79 104.099 1159.55 110.544C1228.29 117.054 1279 220.43 1347.42 242.693C1415.84 264.957 1517.78 210.925 1577.09 246.274C1638.34 282.729 1638.93 398.473 1689.25 446.646C1739.57 494.818 1856.1 491.368 1894.38 549.826C1932.65 608.284 1883.7 713.158 1908.5 779.102C1933.3 845.046 2039.28 890.745 2048.85 960.856C2058.49 1029.86 1968.78 1102.44 1962.34 1173.47ZM1854.14 1247.48C1866.51 1185.12 1952.83 1129.07 1950.95 1066.97C1948.99 1003.89 1859.16 953.109 1843.4 892.633C1827.65 832.157 1881.16 743.754 1852.26 688.03C1823.35 632.306 1720.69 625.535 1679.94 577.363C1639.19 529.19 1650.06 427.247 1599.16 389.164C1549.88 352.253 1454.38 390.661 1395.72 364.557C1337.07 338.453 1301.98 241.847 1241.38 229.869C1179.01 217.565 1109.55 293.86 1047.45 295.813C984.368 297.701 910.417 225.963 849.941 241.717C789.464 257.471 759.584 356.42 703.795 384.933C648.006 413.446 550.489 380.897 501.991 421.648C453.493 462.4 471.004 563.822 432.922 614.729C396.011 664.008 293.612 677.028 267.508 735.616C241.403 794.205 300.057 878.832 288.469 939.308C276.101 1001.67 189.78 1057.72 191.668 1119.83C193.556 1182.91 283.457 1233.62 299.21 1294.09C314.964 1354.57 261.453 1442.97 290.357 1498.76C319.261 1554.55 421.92 1561.19 462.672 1609.43C503.423 1657.67 492.552 1759.55 543.459 1797.63C592.738 1834.47 688.237 1796.07 746.825 1822.17C805.414 1848.27 840.827 1944.94 901.173 1956.86C963.537 1969.23 1033.06 1892.87 1095.1 1890.98C1158.25 1889.03 1232.2 1960.76 1292.67 1945.01C1353.15 1929.26 1383.03 1830.37 1438.82 1801.47C1494.61 1772.56 1592.12 1805.57 1640.3 1764.75C1688.47 1723.94 1671.61 1622.97 1709.69 1572.06C1746.6 1522.78 1849 1509.96 1875.11 1451.31C1901.21 1392.65 1842.3 1307.89 1854.14 1247.48ZM1842.3 1151.07C1838.26 1205.49 1757.67 1246.57 1741.13 1299.95C1725.12 1351.64 1768.87 1431.06 1740.68 1479.88C1712.49 1528.71 1621.81 1530.53 1585.03 1570.24C1547.08 1611.25 1551.83 1701.61 1506.91 1732.27C1461.99 1762.93 1378.6 1725.76 1327.44 1745.87C1276.27 1765.99 1241.12 1849.64 1186.56 1857.91C1132.01 1866.18 1074.2 1796.59 1018.87 1792.81C963.537 1789.03 896.681 1849.12 843.105 1832.59C791.417 1816.64 769.414 1728.88 720.526 1700.7C671.637 1672.51 584.731 1697.31 545.086 1660.53C504.074 1622.58 522.432 1533.78 491.771 1488.67C461.109 1443.56 371.6 1426.89 351.549 1375.79C331.499 1324.69 386.377 1252.11 378.109 1197.75C369.842 1143.39 296.021 1090.86 299.992 1035.52C303.963 980.19 384.619 940.09 401.154 886.709C417.168 835.021 373.422 755.602 401.61 706.713C429.797 657.824 520.804 656.067 557.325 616.422C595.342 575.41 590.59 485.054 635.442 454.327C680.295 423.601 763.751 460.837 814.918 440.787C866.085 420.737 901.238 337.021 955.79 328.753C1010.34 320.486 1068.15 390.01 1123.48 393.851C1178.82 397.692 1245.61 337.606 1299.25 354.076C1350.94 370.09 1372.94 457.778 1421.76 485.965C1470.59 514.153 1557.56 489.415 1597.53 526.131C1638.54 564.148 1620.12 652.942 1650.84 698.055C1681.57 743.168 1771.27 759.442 1791.32 810.609C1811.38 861.777 1756.5 934.296 1764.76 988.588C1773.03 1042.88 1846.59 1095.8 1842.3 1151.07ZM1674.8 1066.45C1672.65 1018.92 1726.23 962.288 1713.86 916.199C1701.49 870.109 1626.17 849.017 1603.52 807.224C1580.86 765.431 1605.01 691.285 1573.31 655.025C1542.58 619.937 1465.83 633.347 1426.45 604.769C1387.07 576.191 1376.19 499.05 1333.29 480.692C1289.03 461.683 1225.56 507.317 1179.27 498.985C1132.99 490.652 1088.66 425.294 1041.59 427.507C994.524 429.72 956.571 498.204 910.677 510.833C864.783 523.462 797.732 483.621 755.613 506.276C713.495 528.93 710.045 606.397 673.85 638.164C638.762 668.826 560.84 662.251 532.262 701.57C503.684 740.889 534.085 812.953 515.727 855.788C496.718 900.054 423.938 927.981 415.541 974.331C407.143 1020.68 465.666 1073.09 467.619 1120.41C469.572 1167.74 416.192 1224.57 428.56 1270.66C440.929 1316.75 516.443 1337.64 539.097 1380.09C561.751 1422.53 537.6 1496.03 569.303 1532.29C600.029 1567.05 677.04 1553.64 716.099 1581.89C755.158 1610.14 766.42 1687.68 809.254 1706.03C853.521 1724.98 917.057 1679.41 963.342 1687.74C1009.63 1696.07 1053.89 1761.04 1101.22 1758.89C1148.55 1756.75 1186.24 1688.2 1232.07 1675.57C1277.9 1662.94 1345.08 1702.71 1387.2 1680.13C1429.31 1657.54 1432.76 1579.94 1468.96 1548.24C1504.05 1517.51 1581.9 1524.15 1610.48 1484.83C1639.06 1445.51 1608.72 1373.45 1627.08 1330.55C1646.03 1286.28 1718.87 1258.35 1727.2 1212.07C1735.54 1165.78 1677.14 1113.51 1674.99 1066.25L1674.8 1066.45ZM1577.74 1123.93C1575.39 1163.57 1619.79 1211.94 1608.59 1250.54C1597.4 1289.15 1534.25 1305.42 1514.53 1340.7C1495.39 1374.95 1514.53 1437.76 1487.12 1468.1C1459.71 1498.44 1395.33 1486.07 1363.43 1508.66C1330.36 1531.96 1320.14 1596.67 1283.56 1611.64C1246.97 1626.61 1193.66 1587.75 1154.4 1594.2C1115.15 1600.64 1077.65 1654.74 1037.75 1652.33C997.844 1649.92 967.378 1592.05 928.84 1580.72C890.301 1569.39 833.861 1602.2 798.643 1582.48C764.467 1563.4 762.123 1497.85 731.722 1470.64C701.322 1443.43 636.093 1447.79 613.504 1415.76C590.199 1382.69 616.564 1322.54 601.656 1286.02C586.749 1249.5 525.492 1224.24 519.047 1184.79C512.602 1145.34 562.272 1102.57 564.616 1062.67C566.959 1022.76 522.562 974.852 533.824 936.314C545.086 897.776 608.166 881.436 627.891 846.283C646.965 812.042 627.891 749.222 655.297 718.886C682.704 688.55 747.086 700.854 778.984 678.33C812.054 655.025 822.274 590.317 858.859 575.345C895.444 560.372 948.89 598.91 988.144 592.401C1027.4 585.891 1064.89 531.924 1104.8 534.268C1144.71 536.611 1175.11 594.614 1213.71 605.876C1252.31 617.138 1308.69 584.393 1343.91 604.183C1378.15 623.257 1380.49 688.811 1410.83 716.022C1441.16 743.233 1506.52 738.871 1529.11 770.9C1552.41 803.904 1525.98 864.055 1540.96 900.64C1555.93 937.225 1616.99 962.288 1623.5 1001.48C1630.01 1040.67 1580.34 1083.83 1577.93 1123.73L1577.74 1123.93ZM1476.38 1160.84C1481.65 1128.94 1525.33 1098.73 1523.45 1066.45C1521.56 1034.16 1474.62 1009.48 1465.51 978.237C1456.39 946.99 1482.95 901.356 1466.94 872.778C1450.93 844.2 1398.52 843.159 1376.39 818.617C1354.26 794.075 1357.9 741.215 1331.99 722.922C1306.08 704.63 1256.54 725.396 1226.99 713.288C1197.43 701.179 1177.06 651.705 1145.36 646.497C1113.65 641.289 1078.83 681.52 1046.54 683.408C1014.25 685.296 975.255 649.361 944.007 658.475C912.76 667.589 899.611 718.626 871.032 734.575C842.454 750.524 792.459 734.575 767.917 756.773C743.375 778.972 753.335 831.115 735.368 857.024C717.401 882.933 664.02 891.852 651.912 921.472C639.804 951.091 671.442 994.251 666.038 1026.02C660.635 1057.79 617.02 1088.12 618.972 1120.41C620.925 1152.7 667.796 1177.37 676.845 1208.55C685.893 1239.74 659.464 1285.5 675.478 1314.08C691.492 1342.66 743.896 1343.63 765.964 1368.24C788.032 1392.85 784.517 1445.64 810.426 1463.93C836.335 1482.23 885.875 1461.46 915.429 1473.57C944.984 1485.68 965.295 1535.09 997.062 1540.36C1028.83 1545.63 1063.59 1505.34 1095.88 1503.45C1128.17 1501.56 1167.16 1537.5 1198.41 1528.38C1229.66 1519.27 1242.81 1468.23 1271.39 1452.22C1299.96 1436.2 1349.96 1452.22 1374.5 1430.08C1399.04 1407.95 1389.08 1355.74 1407.05 1329.83C1425.02 1303.92 1478.33 1294.81 1490.44 1265.19C1502.55 1235.57 1471.24 1192.41 1476.58 1160.64L1476.38 1160.84ZM1380.23 1037.15C1384.66 1061.63 1418.38 1084.22 1417.21 1108.76C1416.03 1133.3 1380.49 1152.96 1373.92 1176.79C1367.34 1200.61 1388.04 1235.37 1376.26 1257.38C1364.48 1279.38 1324.18 1281.07 1307.71 1299.89C1291.24 1318.7 1295.21 1358.48 1274.77 1373.51C1254.33 1388.55 1216.83 1372.54 1194.57 1382.11C1172.31 1391.68 1157.01 1429.82 1132.99 1434.18C1108.97 1438.55 1081.62 1408.15 1057.02 1406.97C1032.41 1405.8 1002.79 1433.73 978.9 1427.15C955.009 1420.58 944.007 1381.59 922.134 1369.87C900.261 1358.15 861.854 1370.65 843.04 1354.18C824.227 1337.71 831.778 1298.26 817.001 1277.82C802.224 1257.38 761.993 1251.78 752.489 1229.39C742.984 1206.99 766.29 1173.4 761.993 1149.32C757.697 1125.23 723.846 1102.25 724.952 1077.71C726.059 1053.17 761.733 1033.51 768.308 1009.68C774.882 985.854 754.181 951.091 765.964 929.023C777.747 906.955 818.043 905.392 834.512 886.579C850.982 867.766 847.011 827.991 867.452 812.953C887.893 797.915 925.324 813.864 947.653 804.36C969.982 794.856 985.149 756.643 1009.24 752.282C1033.32 747.92 1060.6 778.321 1085.21 779.427C1109.81 780.534 1139.43 752.672 1163.32 759.247C1187.21 765.822 1198.15 804.816 1220.09 816.599C1242.03 828.381 1280.37 815.817 1299.18 832.287C1318 848.757 1310.44 888.206 1325.22 908.647C1340 929.088 1380.23 934.687 1389.73 957.08C1399.24 979.474 1376.06 1013.13 1380.43 1037.22L1380.23 1037.15Z" fill="#9CD5F6"></path> </svg> 