<?xml version="1.0" encoding="UTF-8"?> <svg xmlns="http://www.w3.org/2000/svg" width="1986" height="2481" viewBox="0 0 1986 2481" fill="none"> <g opacity="0.1"> <path d="M1986 568.5H1411.04L266.225 1713.32M65.5 1914.04L266.225 1713.32M266.225 1713.32V2021.13C266.225 2039.7 258.85 2057.5 245.723 2070.63L65.5 2250.85" stroke="#EEF1FF" stroke-width="2"></path> <path d="M1426.25 595.5H1455.2L1406.95 643.75H1378L1426.25 595.5Z" fill="#EEF1FF"></path> <path d="M1464.85 595.5H1493.8L1445.55 643.75H1416.6L1464.85 595.5Z" fill="#EEF1FF"></path> <path d="M1503.45 595.5H1532.4L1484.15 643.75H1455.2L1503.45 595.5Z" fill="#EEF1FF"></path> <path d="M1542.05 595.5H1571L1522.75 643.75H1493.8L1542.05 595.5Z" fill="#EEF1FF"></path> </g> <g opacity="0.1"> <path d="M1923.35 2480L1923.35 1905.04L538.536 500.226M39.3101 0.999918L538.536 500.226M538.536 500.226L230.721 500.226C212.155 500.226 194.351 492.851 181.223 479.724L1.00035 299.501" stroke="#EEF1FF" stroke-width="2"></path> <path d="M1896.35 1920.25L1896.35 1949.2L1848.1 1900.95L1848.1 1872L1896.35 1920.25Z" fill="#EEF1FF"></path> <path d="M1896.35 1958.85L1896.35 1987.8L1848.1 1939.55L1848.1 1910.6L1896.35 1958.85Z" fill="#EEF1FF"></path> <path d="M1896.35 1997.45L1896.35 2026.4L1848.1 1978.15L1848.1 1949.2L1896.35 1997.45Z" fill="#EEF1FF"></path> <path d="M1896.35 2036.05L1896.35 2065L1848.1 2016.75L1848.1 1987.8L1896.35 2036.05Z" fill="#EEF1FF"></path> </g> </svg> 