<?xml version="1.0" encoding="UTF-8"?> <svg xmlns="http://www.w3.org/2000/svg" width="545" height="1860" viewBox="0 0 545 1860" fill="none"> <g filter="url(#filter0_f_30_1371)"> <path d="M208.542 251.518L104 147V1713L420.492 1396.58C433.623 1383.45 441 1365.65 441 1347.08V1140.2C441 1121.64 433.623 1103.83 420.492 1090.7L249.559 919.807C236.428 906.679 229.05 888.871 229.05 870.303V301.021C229.05 282.453 221.673 264.646 208.542 251.518Z" fill="#060C23"></path> <path d="M208.542 251.518L104 147V1713L420.492 1396.58C433.623 1383.45 441 1365.65 441 1347.08V1140.2C441 1121.64 433.623 1103.83 420.492 1090.7L249.559 919.807C236.428 906.679 229.05 888.871 229.05 870.303V301.021C229.05 282.453 221.673 264.646 208.542 251.518Z" stroke="#0085FF" stroke-opacity="0.2" stroke-width="60"></path> </g> <path d="M208.542 251.518L104 147V1713L420.492 1396.58C433.623 1383.45 441 1365.65 441 1347.08V1140.2C441 1121.64 433.623 1103.83 420.492 1090.7L249.559 919.807C236.428 906.679 229.05 888.871 229.05 870.303V301.021C229.05 282.453 221.673 264.646 208.542 251.518Z" fill="#060C23" stroke="url(#paint0_linear_30_1371)" stroke-opacity="0.6" stroke-width="2"></path> <rect width="27.2232" height="110.837" transform="matrix(-1 0 0 1 224.62 1140.76)" fill="#EEF1FF"></rect> <rect width="27.2232" height="110.837" transform="matrix(4.37114e-08 -1 -1 -4.37114e-08 308.234 1251.6)" fill="#EEF1FF"></rect> <rect width="27.2232" height="165.11" transform="matrix(-0.707107 -0.707107 -0.707107 0.707107 333 1135.25)" fill="#EEF1FF"></rect> <path d="M201.357 1301.4H199V1354.97H201.357V1301.4Z" fill="#EEF1FF"></path> <path d="M203.713 1301.4H202.24V1354.97H203.713V1301.4Z" fill="#EEF1FF"></path> <path d="M305.061 1301.4H302.704V1354.97H305.061V1301.4Z" fill="#EEF1FF"></path> <path d="M306.7 1301.4H305.78V1354.97H306.7V1301.4Z" fill="#EEF1FF"></path> <path d="M308 1301.4H307.424V1354.97H308V1301.4Z" fill="#EEF1FF"></path> <path d="M206.784 1301.4H205.481V1347.34H206.784V1301.4Z" fill="#EEF1FF"></path> <path d="M210.908 1301.4H207.885V1347.34H210.908V1301.4Z" fill="#EEF1FF"></path> <path d="M212.823 1301.4H211.863V1347.34H212.823V1301.4Z" fill="#EEF1FF"></path> <path d="M214.366 1301.4H213.707V1347.34H214.366V1301.4Z" fill="#EEF1FF"></path> <path d="M222.586 1301.4H222.132V1347.34H222.586V1301.4Z" fill="#EEF1FF"></path> <path d="M224.17 1301.4H223.347V1347.34H224.17V1301.4Z" fill="#EEF1FF"></path> <path d="M217.277 1301.4H216.246V1347.34H217.277V1301.4Z" fill="#EEF1FF"></path> <path d="M221.606 1301.4H219.285V1347.34H221.606V1301.4Z" fill="#EEF1FF"></path> <path d="M227.321 1301.4H225.516V1347.34H227.321V1301.4Z" fill="#EEF1FF"></path> <path d="M233.033 1301.4H228.846V1347.34H233.033V1301.4Z" fill="#EEF1FF"></path> <path d="M235.687 1301.4H234.357V1347.34H235.687V1301.4Z" fill="#EEF1FF"></path> <path d="M237.828 1301.4H236.913V1347.34H237.828V1301.4Z" fill="#EEF1FF"></path> <path d="M245.358 1301.4H245.016V1347.34H245.358V1301.4Z" fill="#EEF1FF"></path> <path d="M246.548 1301.4H245.93V1347.34H246.548V1301.4Z" fill="#EEF1FF"></path> <path d="M239.945 1301.4H238.516V1347.34H239.945V1301.4Z" fill="#EEF1FF"></path> <path d="M294.608 1301.4H290.42V1347.34H294.608V1301.4Z" fill="#EEF1FF"></path> <path d="M297.262 1301.4H295.932V1347.34H297.262V1301.4Z" fill="#EEF1FF"></path> <path d="M299.402 1301.4H298.487V1347.34H299.402V1301.4Z" fill="#EEF1FF"></path> <path d="M301.519 1301.4H300.091V1347.34H301.519V1301.4Z" fill="#EEF1FF"></path> <path d="M243.588 1301.4H241.841V1347.34H243.588V1301.4Z" fill="#EEF1FF"></path> <path d="M252.485 1301.4H251.83V1347.34H252.485V1301.4Z" fill="#EEF1FF"></path> <path d="M259.821 1301.4H259.371V1347.34H259.821V1301.4Z" fill="#EEF1FF"></path> <path d="M263.213 1301.4H262.167V1347.34H263.213V1301.4Z" fill="#EEF1FF"></path> <path d="M254.774 1301.4H253.586V1347.34H254.774V1301.4Z" fill="#EEF1FF"></path> <path d="M251.067 1301.4H247.715V1347.34H251.067V1301.4Z" fill="#EEF1FF"></path> <path d="M258.44 1301.4H256.716V1347.34H258.44V1301.4Z" fill="#EEF1FF"></path> <path d="M266.109 1301.4H264.188V1347.34H266.109V1301.4Z" fill="#EEF1FF"></path> <path d="M269.2 1301.4H267.879V1347.34H269.2V1301.4Z" fill="#EEF1FF"></path> <path d="M280.08 1301.4H279.587V1347.34H280.08V1301.4Z" fill="#EEF1FF"></path> <path d="M282.464 1301.4H281.57V1347.34H282.464V1301.4Z" fill="#EEF1FF"></path> <path d="M283.983 1301.4H283.49V1347.34H283.983V1301.4Z" fill="#EEF1FF"></path> <path d="M285.837 1301.4H285.467V1347.34H285.837V1301.4Z" fill="#EEF1FF"></path> <path d="M289.017 1301.4H286.95V1347.34H289.017V1301.4Z" fill="#EEF1FF"></path> <path d="M272.259 1301.4H270.195V1347.34H272.259V1301.4Z" fill="#EEF1FF"></path> <path d="M277.523 1301.4H275.001V1347.34H277.523V1301.4Z" fill="#EEF1FF"></path> <path d="M211.336 1357.07V1354.75H207.378V1353.99L211.178 1348.55H212.419V1353.85H213.61V1354.75H212.423V1357.07L211.336 1357.07ZM211.336 1353.85V1351C211.336 1350.56 211.349 1350.11 211.375 1349.67H211.336C211.073 1350.16 210.864 1350.53 210.629 1350.92L208.545 1353.82V1353.85H211.336Z" fill="#EEF1FF"></path> <path d="M221.461 1352.72C221.461 1355.62 220.387 1357.21 218.5 1357.21C216.836 1357.21 215.71 1355.65 215.68 1352.84C215.68 1349.98 216.912 1348.41 218.641 1348.41C220.446 1348.41 221.461 1350.01 221.461 1352.72ZM216.836 1352.85C216.836 1355.06 217.513 1356.32 218.567 1356.32C219.745 1356.32 220.308 1354.95 220.308 1352.77C220.308 1350.68 219.771 1349.3 218.579 1349.3C217.573 1349.3 216.836 1350.53 216.836 1352.85Z" fill="#EEF1FF"></path> <path d="M226.337 1349.63H226.312L224.832 1350.43L224.606 1349.55L226.468 1348.55H227.45V1357.07H226.336L226.337 1349.63Z" fill="#EEF1FF"></path> <path d="M231.762 1354.91C231.762 1353.83 232.404 1353.07 233.454 1352.63L233.441 1352.59C232.498 1352.14 232.087 1351.41 232.087 1350.67C232.087 1349.32 233.227 1348.4 234.72 1348.4C236.372 1348.4 237.202 1349.44 237.202 1350.5C237.202 1351.22 236.848 1351.99 235.8 1352.49V1352.53C236.861 1352.95 237.516 1353.7 237.516 1354.73C237.516 1356.21 236.245 1357.21 234.621 1357.21C232.836 1357.21 231.762 1356.16 231.762 1354.91ZM236.348 1354.85C236.348 1353.82 235.627 1353.32 234.474 1352.99C233.478 1353.28 232.941 1353.94 232.941 1354.75C232.902 1355.62 233.557 1356.37 234.645 1356.37C235.676 1356.37 236.353 1355.73 236.353 1354.85H236.348ZM233.177 1350.6C233.177 1351.45 233.819 1351.91 234.801 1352.17C235.535 1351.92 236.099 1351.4 236.099 1350.62C236.099 1349.95 235.693 1349.23 234.657 1349.23C233.7 1349.23 233.177 1349.86 233.177 1350.6Z" fill="#EEF1FF"></path> <path d="M242.401 1349.63H242.375L240.894 1350.43L240.668 1349.55L242.528 1348.55H243.511V1357.07H242.397L242.401 1349.63Z" fill="#EEF1FF"></path> <path d="M257.546 1348.55V1349.31L253.838 1357.07H252.646L256.341 1349.54V1349.51H252.174V1348.55H257.546Z" fill="#EEF1FF"></path> <path d="M265.708 1352.72C265.708 1355.62 264.634 1357.21 262.747 1357.21C261.083 1357.21 259.957 1355.65 259.927 1352.84C259.927 1349.98 261.159 1348.41 262.888 1348.41C264.686 1348.41 265.708 1350.01 265.708 1352.72ZM261.083 1352.85C261.083 1355.06 261.76 1356.32 262.813 1356.32C263.991 1356.32 264.555 1354.95 264.555 1352.77C264.555 1350.68 264.018 1349.3 262.826 1349.3C261.818 1349.3 261.083 1350.53 261.083 1352.85Z" fill="#EEF1FF"></path> <path d="M273.74 1352.72C273.74 1355.62 272.666 1357.21 270.78 1357.21C269.116 1357.21 267.989 1355.65 267.959 1352.84C267.959 1349.98 269.19 1348.41 270.92 1348.41C272.719 1348.41 273.74 1350.01 273.74 1352.72ZM269.115 1352.85C269.115 1355.06 269.792 1356.32 270.844 1356.32C272.023 1356.32 272.587 1354.95 272.587 1352.77C272.587 1350.68 272.049 1349.3 270.857 1349.3C269.849 1349.3 269.116 1350.53 269.116 1352.85H269.115Z" fill="#EEF1FF"></path> <path d="M276.78 1356.26C277.091 1356.27 277.403 1356.26 277.711 1356.22C278.376 1356.13 278.999 1355.85 279.492 1355.39C280.056 1354.88 280.462 1354.13 280.62 1353.13H280.575C280.333 1353.42 280.027 1353.66 279.679 1353.82C279.332 1353.98 278.952 1354.05 278.57 1354.04C277.037 1354.04 276.055 1352.89 276.055 1351.44C276.055 1349.82 277.221 1348.41 278.964 1348.41C280.707 1348.41 281.784 1349.82 281.784 1352C281.784 1353.87 281.155 1355.18 280.318 1355.99C279.638 1356.64 278.766 1357.04 277.836 1357.13C277.485 1357.19 277.13 1357.21 276.774 1357.2L276.78 1356.26ZM277.2 1351.36C277.2 1352.42 277.842 1353.16 278.837 1353.16C279.611 1353.16 280.213 1352.78 280.514 1352.27C280.589 1352.14 280.625 1352 280.619 1351.85C280.619 1350.4 280.082 1349.28 278.876 1349.28C277.894 1349.29 277.2 1350.15 277.2 1351.36Z" fill="#EEF1FF"></path> <path d="M284.038 1354.91C284.038 1353.83 284.68 1353.07 285.73 1352.63L285.718 1352.59C284.774 1352.14 284.364 1351.41 284.364 1350.67C284.364 1349.32 285.505 1348.4 286.998 1348.4C288.649 1348.4 289.475 1349.44 289.475 1350.5C289.475 1351.22 289.12 1351.99 288.072 1352.49V1352.53C289.134 1352.95 289.789 1353.7 289.789 1354.73C289.789 1356.21 288.518 1357.21 286.893 1357.21C285.113 1357.21 284.038 1356.16 284.038 1354.91ZM288.624 1354.85C288.624 1353.82 287.903 1353.32 286.75 1352.99C285.755 1353.28 285.217 1353.94 285.217 1354.75C285.177 1355.62 285.833 1356.37 286.92 1356.37C287.956 1356.37 288.624 1355.73 288.624 1354.85ZM285.453 1350.6C285.453 1351.45 286.095 1351.91 287.078 1352.17C287.812 1351.92 288.375 1351.4 288.375 1350.62C288.375 1349.95 287.968 1349.23 286.934 1349.23C285.977 1349.23 285.453 1349.86 285.453 1350.6Z" fill="#EEF1FF"></path> <path d="M292.175 1357.07V1356.36L293.077 1355.48C295.252 1353.41 296.236 1352.31 296.247 1351.03C296.247 1350.16 295.829 1349.37 294.555 1349.37C293.782 1349.37 293.14 1349.76 292.75 1350.09L292.384 1349.27C293.06 1348.71 293.914 1348.4 294.794 1348.41C296.629 1348.41 297.401 1349.67 297.401 1350.88C297.401 1352.46 296.262 1353.73 294.468 1355.46L293.791 1356.09V1356.11H297.61V1357.07H292.175Z" fill="#EEF1FF"></path> <path d="M141 627.551L141 598.601L189.25 646.851L189.25 675.801L141 627.551Z" fill="#EEF1FF"></path> <path d="M141 589.351L141 560.401L189.25 608.651L189.25 637.601L141 589.351Z" fill="#EEF1FF"></path> <path d="M141 551.15L141 522.2L189.25 570.45L189.25 599.4L141 551.15Z" fill="#EEF1FF"></path> <path d="M141 512.95L141 484L189.25 532.25L189.25 561.2L141 512.95Z" fill="#EEF1FF"></path> <defs> <filter id="filter0_f_30_1371" x="0" y="0.585449" width="545" height="1858.83" filterUnits="userSpaceOnUse" color-interpolation-filters="sRGB"> <feFlood flood-opacity="0" result="BackgroundImageFix"></feFlood> <feBlend mode="normal" in="SourceGraphic" in2="BackgroundImageFix" result="shape"></feBlend> <feGaussianBlur stdDeviation="37" result="effect1_foregroundBlur_30_1371"></feGaussianBlur> </filter> <linearGradient id="paint0_linear_30_1371" x1="272.5" y1="147" x2="272.5" y2="1713" gradientUnits="userSpaceOnUse"> <stop stop-color="#9672FF"></stop> <stop offset="1" stop-color="#FF64E6"></stop> </linearGradient> </defs> </svg> 