<?xml version="1.0" encoding="UTF-8"?> <svg xmlns="http://www.w3.org/2000/svg" width="475" height="1858" viewBox="0 0 475 1858" fill="none"> <g filter="url(#filter0_f_202_29)"> <path d="M266.458 1606.48L371 1711V145L125.464 381.268C111.75 394.464 104 412.676 104 431.708V725.517C104 739.39 108.122 752.95 115.843 764.476L234.107 941.018C241.828 952.543 245.95 966.103 245.95 979.976V1556.98C245.95 1575.55 253.327 1593.35 266.458 1606.48Z" fill="#060C23"></path> <path d="M266.458 1606.48L371 1711V145L125.464 381.268C111.75 394.464 104 412.676 104 431.708V725.517C104 739.39 108.122 752.95 115.843 764.476L234.107 941.018C241.828 952.543 245.95 966.103 245.95 979.976V1556.98C245.95 1575.55 253.327 1593.35 266.458 1606.48Z" stroke="#0085FF" stroke-opacity="0.2" stroke-width="60"></path> </g> <path d="M266.458 1606.48L371 1711V145L125.464 381.268C111.75 394.464 104 412.676 104 431.708V725.517C104 739.39 108.122 752.95 115.843 764.476L234.107 941.018C241.828 952.543 245.95 966.103 245.95 979.976V1556.98C245.95 1575.55 253.327 1593.35 266.458 1606.48Z" fill="#060C23" stroke="url(#paint0_linear_202_29)" stroke-opacity="0.6" stroke-width="2"></path> <path d="M206.6 798.416C205.897 797.561 204.518 795.85 202.463 793.299C200.707 791.111 199.286 789.355 198.201 788.031L206.324 781.48C211.004 777.655 213.739 775.449 214.53 774.86C214.75 774.663 214.925 774.42 215.042 774.149C215.159 773.877 215.215 773.583 215.206 773.288C215.215 767.468 215.169 759.041 215.068 748.008V741.789C214.999 738.603 214.999 736.534 214.999 735.583C214.999 735.541 215.068 735.1 215.068 734.286H228.39V762.958C228.575 763.02 228.699 763.054 228.764 763.073L232.141 760.338C233.562 759.166 234.693 758.255 235.562 757.58L253.201 743.54C253.677 743.126 254.28 742.887 254.911 742.864C257.963 742.809 264.358 742.809 274.095 742.864L275.06 742.933C271.998 745.429 270.274 746.85 269.861 747.167C252.612 761.152 242.117 769.665 238.375 772.709C238.186 772.836 238.032 773.009 237.926 773.211C237.82 773.414 237.766 773.639 237.768 773.867C237.829 779.59 239.507 785.179 242.609 789.989C245.722 794.757 250.265 798.417 255.587 800.443C258.922 801.757 262.508 802.315 266.085 802.076C269.662 801.838 273.142 800.809 276.274 799.064C276.315 799.022 276.977 798.636 278.246 797.905C278.2 797.767 280.273 801.477 284.466 809.035C274.269 815.213 263.82 816.593 253.118 813.172C242.646 809.853 234.587 802.774 228.942 791.934V814.744H215.62V791.727L215.275 791.658C214.539 792.21 213.105 793.327 210.972 795.009L206.6 798.416Z" fill="white"></path> <path d="M207.634 666.542L202.311 669.411L198.505 659.826C201.824 658.125 206.062 655.895 211.22 653.137C218.323 649.441 222.598 647.221 224.06 646.435V665.742L228.432 662.984C230.128 661.936 231.521 661.067 232.569 660.391C237.122 657.394 242.236 655.352 247.602 654.392C249.824 654.115 252.068 654.046 254.304 654.185C259.628 654.544 263.268 657.481 265.227 662.998C266.612 666.829 267.285 670.882 267.213 674.955C267.167 677.732 267.029 681.304 266.799 685.671C266.486 691.693 266.303 695.247 266.247 696.331C266.123 699.972 266.027 703.144 266.123 705.82C266.123 705.916 266.482 707.116 267.213 709.447C271.038 706.119 274.384 699.88 277.253 690.732L287.431 693.49C287.155 694.621 287.017 695.27 287.017 695.27C285.194 702.313 281.904 708.893 277.363 714.577C275.345 717.161 272.413 718.873 269.171 719.363C267.652 719.624 266.095 719.553 264.606 719.153C263.118 718.753 261.735 718.034 260.552 717.046C258.833 715.718 257.45 714.006 256.514 712.047C255.577 710.087 255.113 707.936 255.159 705.765C255.159 703.613 255.228 700.699 255.366 697.021C255.596 692.7 255.711 689.808 255.711 688.346C255.794 683.391 255.748 678.361 255.573 673.259C255.461 671.786 255.068 670.349 254.414 669.025C252.815 665.646 249.877 664.611 245.74 665.88C243.409 666.556 240.072 668.501 235.7 671.686C234.33 672.689 232.528 674.031 230.294 675.713L224.901 679.851C224.603 680.069 224.365 680.359 224.21 680.695C224.056 681.03 223.99 681.4 224.018 681.768V720.494H213.151V695.931C211.965 695.794 211.262 695.656 211.041 695.656L206.048 702.634L202.09 699.145C200.035 697.324 198.739 696.18 198.201 695.725C202.063 690.852 204.131 688.236 204.407 687.877C206.035 685.657 208.82 682.002 212.682 676.844C212.898 676.573 213.019 676.239 213.027 675.893V663.66C211.841 664.349 210.048 665.301 207.634 666.542Z" fill="white"></path> <path d="M234.997 619.597V566.873H225.784V553.826H255.022V566.873H246.885V619.528H255.022V632.643H225.784V619.597H234.997Z" fill="white"></path> <path d="M281.776 529.451C280.232 527.493 279.018 526.017 278.232 525.01C274.978 527.598 270.913 528.951 266.757 528.83C265.722 528.891 264.686 528.728 263.72 528.352C262.754 527.975 261.88 527.396 261.158 526.651C259.696 524.914 257.099 521.999 253.366 517.908C253.27 517.728 251.904 516.308 249.229 513.674H270.536V509.371H247.257C246.484 509.371 246.002 509.233 245.877 508.957C245.482 508.267 244.301 506.194 242.333 502.737H279.349V463.391H202.587V465.308C202.587 496.641 202.61 516.087 202.656 523.645C202.656 525.879 201.814 527.148 200.132 527.465C199.93 527.549 199.744 527.665 199.58 527.81C200.766 530.715 202.177 534.108 203.814 537.988C206.637 537.114 211.51 535.588 218.433 533.409L232.983 528.761C231.438 524.845 230.119 521.452 229.024 518.583C227.48 519.034 223.085 520.381 215.84 522.624V513.812C215.999 513.775 216.16 513.752 216.323 513.743C224.873 513.687 230.61 513.687 233.534 513.743C233.806 513.753 234.071 513.826 234.31 513.955C234.549 514.084 234.756 514.266 234.913 514.487C242.425 523.231 247.615 529.331 250.484 532.788C253.352 536.245 256.336 538.342 259.434 539.077C262.959 539.948 266.603 540.227 270.219 539.905C275.73 539.323 280.977 537.244 285.389 533.892C284.548 532.926 283.348 531.451 281.749 529.451H281.776ZM215.84 476.575H268.247V482.933H215.84V476.575ZM215.84 489.691H268.247V496.048H215.84V489.691ZM215.84 509.233V502.806H217.578C223.26 502.806 226.542 502.806 227.411 502.806C227.784 502.792 228.152 502.89 228.469 503.086C228.786 503.283 229.037 503.569 229.19 503.909C229.365 504.268 230.367 506.065 232.196 509.302L215.84 509.233Z" fill="white"></path> <path d="M259.573 414.631C253.544 416.692 248.008 419.979 243.313 424.285C243.791 423.834 242.09 425.292 238.21 428.657C235.626 425.742 232.781 422.575 229.673 419.155C236.734 412.544 242.678 408.062 247.505 405.708C252.231 403.151 257.318 401.328 262.593 400.302C268.882 399.401 273.778 400.817 277.281 404.55C278.697 406.092 279.792 407.901 280.502 409.871C281.212 411.841 281.524 413.933 281.418 416.024C281.473 424.906 278.788 432.054 273.364 437.469C264.354 446.351 254.015 450.355 242.347 449.482C236.247 449.043 230.297 447.385 224.849 444.606C219.4 441.827 214.565 437.984 210.627 433.305C206.269 428.248 203.971 421.462 203.732 412.949C203.456 400.435 207.29 389.963 215.234 381.532C220.924 375.22 228.577 371.012 236.955 369.589C245.372 368.05 254.062 369.55 261.476 373.823L262.441 374.361C262.896 374.636 263.255 374.843 263.531 374.981C262.703 376.443 261.683 378.263 260.455 380.58C258.814 383.421 257.766 385.325 257.311 386.18C256.263 385.642 255.518 385.228 255.063 384.952C252.068 383.279 248.75 382.267 245.332 381.984C241.913 381.7 238.474 382.153 235.245 383.311C228.802 385.527 223.468 390.154 220.364 396.22C217.018 402.52 215.863 409.754 217.082 416.783C217.863 422.115 220.824 426.464 225.963 429.829C232.155 433.77 239.478 435.55 246.788 434.891C252.061 434.723 257.177 433.064 261.545 430.105C263.594 428.717 265.295 426.875 266.515 424.722C267.735 422.569 268.441 420.164 268.578 417.693C268.649 417.303 268.642 416.903 268.557 416.516C268.471 416.129 268.309 415.763 268.081 415.439C267.852 415.116 267.561 414.841 267.225 414.631C266.889 414.421 266.515 414.281 266.123 414.217C263.949 413.679 261.662 413.823 259.573 414.631Z" fill="white"></path> <defs> <filter id="filter0_f_202_29" x="0" y="0.499023" width="475" height="1856.92" filterUnits="userSpaceOnUse" color-interpolation-filters="sRGB"> <feFlood flood-opacity="0" result="BackgroundImageFix"></feFlood> <feBlend mode="normal" in="SourceGraphic" in2="BackgroundImageFix" result="shape"></feBlend> <feGaussianBlur stdDeviation="37" result="effect1_foregroundBlur_202_29"></feGaussianBlur> </filter> <linearGradient id="paint0_linear_202_29" x1="202.5" y1="1711" x2="202.5" y2="145" gradientUnits="userSpaceOnUse"> <stop stop-color="#9672FF"></stop> <stop offset="1" stop-color="#FF64E6"></stop> </linearGradient> </defs> </svg> 