<?xml version="1.0" encoding="UTF-8"?> <svg xmlns="http://www.w3.org/2000/svg" width="1752" height="1752" viewBox="0 0 1752 1752" fill="none"> <path d="M881.298 147.46C878.543 147.3 876.421 146.576 874.933 145.288C873.572 143.887 872.978 141.689 873.151 138.694C873.297 136.178 873.768 134.282 874.563 133.006C875.485 131.617 876.396 130.408 877.297 129.378C878.325 128.236 879.244 126.907 880.053 125.391C880.981 123.882 881.529 121.69 881.696 118.815L884.85 64.3663C885.017 61.4911 884.726 59.2505 883.978 57.6445C883.349 56.0455 882.591 54.6192 881.702 53.3657C880.932 52.1191 880.167 50.8126 879.404 49.4462C878.769 47.967 878.524 45.9695 878.67 43.4537C878.843 40.4587 879.684 38.4039 881.191 37.2892C882.824 36.0617 885.019 35.5277 887.774 35.6874L956.958 39.696C962.469 40.0153 965.216 42.3981 965.199 46.8446L965.142 66.4942C965.236 69.0239 964.515 71.0857 962.98 72.6796C961.572 74.1606 959.371 74.8143 956.376 74.6408C952.542 74.4187 949.62 72.9873 947.61 70.3465C945.606 67.586 943.733 64.6527 941.989 61.5467C940.373 58.3278 938.439 55.391 936.189 52.7364C934.066 49.969 930.967 48.4672 926.894 48.2312L923.839 48.0542L921.559 87.4082L924.794 87.5956C927.19 87.7345 929.018 87.2995 930.278 86.2907C931.546 85.1621 932.697 83.9667 933.732 82.7045C934.886 81.4491 936.034 80.3136 937.174 79.2979C938.322 78.1624 939.854 77.6502 941.771 77.7612C944.167 77.9 945.799 78.7759 946.667 80.3888C947.662 81.8889 948.08 84.0166 947.92 86.772L947.066 101.507C946.914 104.143 946.253 106.208 945.085 107.703C944.036 109.205 942.314 109.886 939.918 109.748C938.001 109.637 936.535 109.011 935.519 107.87C934.51 106.61 933.505 105.289 932.503 103.909C931.628 102.416 930.623 101.095 929.487 99.9478C928.358 98.6804 926.596 97.9773 924.2 97.8385L920.966 97.651L919.612 121.012C919.445 123.887 919.676 126.124 920.305 127.723C921.053 129.329 921.872 130.759 922.761 132.012C923.65 133.266 924.416 134.572 925.058 135.932C925.82 137.298 926.129 139.239 925.983 141.755C925.809 144.75 924.906 146.861 923.272 148.089C921.645 149.197 919.514 149.674 916.878 149.521L881.298 147.46Z" fill="#2E3B80"></path> <path d="M1039.85 51.3391C1055.98 54.5426 1067.6 61.9292 1074.72 73.4987C1081.99 84.974 1083.84 99.6568 1080.29 117.547C1076.71 135.555 1069.37 148.473 1058.27 156.301C1047.29 164.151 1033.74 166.475 1017.61 163.272C1001.49 160.068 989.795 152.729 982.532 141.253C975.387 129.801 973.603 115.072 977.18 97.0635C980.735 79.1731 988.002 66.3025 998.982 58.4516C1010.1 50.5064 1023.73 48.1356 1039.85 51.3391ZM1021.73 153.629C1024.79 154.237 1027.81 151.044 1030.79 144.051C1033.91 136.963 1036.7 125.405 1039.15 109.375C1041.6 93.345 1042.43 81.4593 1041.65 73.7176C1040.88 65.8582 1038.97 61.6246 1035.91 61.0166C1032.85 60.4086 1029.76 63.6485 1026.64 70.7362C1023.66 77.7296 1020.94 89.2412 1018.49 105.271C1016.04 121.301 1015.2 133.245 1015.96 141.105C1016.75 148.846 1018.67 153.021 1021.73 153.629Z" fill="#2E3B80"></path> <path d="M1146.73 81.0771C1149.23 81.9298 1151.01 83.2327 1152.06 84.9858C1153.15 86.6254 1153.21 88.8648 1152.24 91.704C1151.42 94.0889 1150.39 95.8271 1149.13 96.9186C1148.02 97.9353 1146.82 98.8565 1145.52 99.6821C1144.22 100.508 1142.93 101.523 1141.63 102.728C1140.44 103.972 1139.38 105.957 1138.45 108.682L1114.91 177.675L1116.95 178.373C1119 179.07 1121.03 178.497 1123.05 176.652C1125.23 174.732 1127.49 172.205 1129.83 169.072C1132.16 165.939 1134.54 162.503 1136.96 158.763C1139.53 154.949 1142.21 151.553 1145 148.575C1147.79 145.597 1150.65 143.34 1153.59 141.805C1156.67 140.196 1159.86 139.953 1163.15 141.077C1165.77 141.968 1167.35 143.27 1167.91 144.981C1168.46 146.693 1168.28 148.722 1167.35 151.068L1150.49 193.241C1149.45 195.549 1148.13 197 1146.53 197.596C1144.93 198.192 1142.71 198.005 1139.87 197.036L1078.37 176.048C1075.88 175.195 1074.08 173.949 1072.99 172.309C1071.94 170.556 1071.9 168.26 1072.87 165.421C1073.69 163.036 1074.65 161.335 1075.75 160.319C1077.01 159.227 1078.27 158.325 1079.53 157.613C1080.83 156.788 1082.07 155.753 1083.25 154.509C1084.55 153.304 1085.67 151.339 1086.6 148.613L1104.21 96.9963C1105.14 94.2707 1105.46 92.034 1105.17 90.2863C1104.99 88.5774 1104.64 87 1104.12 85.5543C1103.6 84.1085 1103.16 82.6253 1102.79 81.1048C1102.57 79.5094 1102.87 77.5192 1103.69 75.1343C1104.65 72.2951 1105.96 70.5209 1107.59 69.8115C1109.38 69.0274 1111.53 69.0617 1114.03 69.9144L1146.73 81.0771Z" fill="#2E3B80"></path> <path d="M1238.97 118.765C1241.35 119.91 1242.95 121.415 1243.78 123.281C1244.67 125.039 1244.46 127.269 1243.16 129.973C1242.07 132.243 1240.83 133.845 1239.45 134.779C1238.23 135.656 1236.93 136.427 1235.54 137.092C1234.15 137.757 1232.75 138.61 1231.31 139.651C1229.99 140.745 1228.7 142.589 1227.45 145.184L1195.84 210.872L1197.78 211.809C1199.73 212.746 1201.82 212.419 1204.05 210.829C1206.44 209.183 1208.98 206.944 1211.67 204.112C1214.37 201.281 1217.14 198.153 1219.99 194.728C1222.99 191.248 1226.06 188.196 1229.19 185.573C1232.31 182.949 1235.43 181.051 1238.52 179.877C1241.78 178.647 1244.97 178.787 1248.11 180.296C1250.59 181.493 1252.01 182.974 1252.36 184.74C1252.71 186.506 1252.28 188.498 1251.08 190.717L1229.3 230.575C1227.99 232.741 1226.51 234.025 1224.85 234.426C1223.19 234.827 1221.01 234.376 1218.31 233.075L1159.76 204.896C1157.38 203.751 1155.75 202.3 1154.86 200.542C1154.03 198.676 1154.26 196.391 1155.56 193.688C1156.66 191.417 1157.81 189.843 1159.04 188.966C1160.42 188.033 1161.77 187.288 1163.11 186.731C1164.49 186.066 1165.85 185.187 1167.17 184.093C1168.61 183.052 1169.95 181.234 1171.2 178.639L1194.85 129.494C1196.1 126.899 1196.68 124.716 1196.6 122.947C1196.63 121.229 1196.47 119.621 1196.13 118.123C1195.78 116.626 1195.52 115.1 1195.33 113.546C1195.31 111.937 1195.84 109.996 1196.94 107.726C1198.24 105.022 1199.74 103.416 1201.45 102.907C1203.32 102.343 1205.45 102.632 1207.83 103.777L1238.97 118.765Z" fill="#2E3B80"></path> <path d="M1335.46 171.922C1349.2 180.95 1357.19 192.163 1359.44 205.561C1361.86 218.924 1358.07 233.228 1348.05 248.472C1337.97 263.816 1326.31 273.03 1313.09 276.113C1299.96 279.263 1286.53 276.324 1272.79 267.296C1259.05 258.268 1250.97 247.073 1248.55 233.709C1246.23 220.411 1250.11 206.091 1260.2 190.747C1270.21 175.503 1281.78 166.306 1294.91 163.157C1308.2 159.973 1321.72 162.894 1335.46 171.922ZM1280.23 259.908C1282.84 261.621 1286.83 259.797 1292.22 254.436C1297.78 249.04 1304.7 239.375 1313 225.441C1321.29 211.507 1326.53 200.805 1328.71 193.335C1330.96 185.765 1330.77 181.123 1328.17 179.41C1325.56 177.696 1321.48 179.537 1315.92 184.933C1310.53 190.294 1303.69 199.942 1295.4 213.876C1287.1 227.81 1281.83 238.563 1279.59 246.133C1277.41 253.603 1277.62 258.194 1280.23 259.908Z" fill="#2E3B80"></path> <path d="M1506.6 317.424C1508.16 318.917 1509.04 320.596 1509.25 322.458C1509.54 324.234 1508.94 325.902 1507.45 327.463C1505.87 329.11 1503.99 330.381 1501.8 331.278C1499.62 332.174 1497.22 333.033 1494.6 333.854C1491.99 334.674 1489.13 335.586 1486.01 336.587C1482.89 337.589 1479.61 339.018 1476.17 340.876L1434.4 363.683C1431.89 365.096 1430.09 366.366 1429.01 367.493C1427.93 368.62 1427.07 369.785 1426.41 370.987C1425.84 372.103 1425.19 373.305 1424.45 374.594C1423.89 375.88 1422.78 377.389 1421.12 379.123C1419.21 381.117 1417.23 382.136 1415.2 382.18C1413.25 382.138 1411.53 381.411 1410.06 380.001L1394.33 364.939C1392.33 363.031 1391.28 361.271 1391.16 359.661C1391.12 357.965 1391.59 356.087 1392.56 354.029L1409.58 317.247L1394.61 325.594C1392.1 327.007 1390.26 328.235 1389.09 329.279C1388.01 330.406 1387.15 331.571 1386.5 332.773C1385.93 333.889 1385.27 335.092 1384.54 336.381C1383.97 337.666 1382.86 339.176 1381.2 340.909C1379.29 342.903 1377.32 343.922 1375.28 343.966C1373.33 343.924 1371.61 343.198 1370.14 341.787L1354.41 326.726C1352.5 324.9 1351.44 323.141 1351.24 321.448C1351.2 319.751 1351.67 317.874 1352.64 315.815L1386.82 242.631C1388.04 239.974 1388.79 237.708 1389.09 235.834C1389.47 233.874 1389.77 232.085 1389.99 230.468C1390.3 228.763 1390.69 227.227 1391.17 225.859C1391.73 224.404 1392.76 222.896 1394.25 221.336C1396.16 219.342 1398.09 218.366 1400.04 218.409C1402.08 218.364 1403.88 219.089 1405.44 220.583L1430.66 244.731C1432.83 246.805 1433.93 248.861 1433.98 250.896C1434.02 252.932 1432.84 255.207 1430.44 257.721C1428.78 259.455 1427.19 260.678 1425.68 261.39C1424.17 262.101 1422.66 262.898 1421.15 263.78C1419.64 264.662 1418.1 265.926 1416.52 267.573C1415.03 269.133 1413.43 271.672 1411.72 275.189L1392.75 315.832C1396.18 313.805 1399.49 311.654 1402.66 309.378C1405.92 307.015 1408.75 304.577 1411.16 302.063C1414.31 298.769 1417.21 295.396 1419.85 291.944C1422.49 288.491 1424.74 284.75 1426.61 280.72C1427.91 278.146 1428.71 275.922 1429.01 274.048C1429.39 272.087 1429.69 270.299 1429.91 268.681C1430.21 266.977 1430.6 265.441 1431.08 264.072C1431.65 262.617 1432.67 261.11 1434.17 259.549C1436.08 257.556 1438.01 256.58 1439.96 256.622C1442 256.578 1443.75 257.261 1445.22 258.672L1470.58 282.944C1472.75 285.019 1473.81 287.033 1473.77 288.986C1473.81 291.022 1472.63 293.297 1470.22 295.81C1468.56 297.544 1466.98 298.767 1465.46 299.479C1464.04 300.274 1462.57 301.112 1461.06 301.994C1459.56 302.875 1458.01 304.139 1456.44 305.786C1454.94 307.347 1453.34 309.885 1451.64 313.402L1432.66 354.046C1436.1 352.019 1439.36 349.826 1442.45 347.467C1445.71 345.104 1448.54 342.666 1450.95 340.152C1456.42 334.431 1460.31 329.594 1462.6 325.64C1464.97 321.599 1466.72 318.039 1467.84 314.959C1468.96 311.879 1470 309.055 1470.96 306.488C1472.01 303.834 1473.94 301.034 1476.77 298.087C1478.42 296.353 1480.11 295.637 1481.81 295.94C1483.6 296.155 1485.57 297.3 1487.74 299.375L1506.6 317.424Z" fill="#2E3B80"></path> <path d="M1603.36 454.518C1604.46 456.231 1604.95 457.986 1604.83 459.781C1604.7 461.577 1603.63 463.126 1601.62 464.43C1600.01 465.472 1598.08 466.144 1595.85 466.446C1593.68 466.848 1591.3 467.031 1588.7 466.995C1586.17 467.059 1583.49 467.005 1580.67 466.832C1577.9 466.76 1575.12 466.771 1572.33 466.865L1541.39 469.078L1521.74 481.784C1519.32 483.348 1517.65 484.856 1516.73 486.307C1515.88 487.86 1515.18 489.315 1514.63 490.672C1514.24 492.064 1513.64 493.454 1512.82 494.84C1512.17 496.262 1510.78 497.658 1508.67 499.026C1506.15 500.655 1503.91 501.173 1501.96 500.58C1500.17 500.022 1498.52 498.584 1497.02 496.267L1477.67 466.338C1476.24 464.121 1475.6 462.032 1475.76 460.071C1476.02 458.044 1477.41 456.216 1479.93 454.587C1482.05 453.219 1483.86 452.478 1485.36 452.366C1487.02 452.29 1488.57 452.361 1490 452.581C1491.53 452.736 1493.14 452.692 1494.84 452.449C1496.61 452.308 1498.7 451.455 1501.12 449.891L1517.14 439.531L1536.26 403.8C1537.43 401.62 1538.3 399.552 1538.9 397.596C1539.49 395.641 1540.1 393.819 1540.72 392.13C1541.44 390.376 1542.27 388.773 1543.18 387.321C1544.2 385.804 1545.62 384.46 1547.44 383.287C1552.07 380.289 1555.53 380.554 1557.81 384.081L1577.85 415.067C1579.47 417.587 1580.04 419.791 1579.55 421.682C1579.12 423.673 1577.45 425.613 1574.53 427.503C1572.41 428.871 1570.43 429.792 1568.6 430.266C1566.92 430.775 1565.27 431.417 1563.63 432.193C1561.98 432.969 1560.25 434.16 1558.43 435.765C1556.78 437.406 1554.86 440.076 1552.68 443.773L1543.98 458.829C1547.68 458.581 1551.21 458.082 1554.59 457.33C1558.12 456.614 1561 455.539 1563.22 454.106C1565.44 452.672 1567.21 451.099 1568.53 449.387C1569.95 447.61 1571.21 445.797 1572.3 443.948C1573.56 442.135 1574.86 440.289 1576.22 438.411C1577.64 436.633 1579.51 434.995 1581.83 433.497C1583.85 432.193 1585.65 431.886 1587.24 432.574C1588.93 433.197 1590.58 434.768 1592.21 437.287L1603.36 454.518Z" fill="#2E3B80"></path> <path d="M1638.8 522.302C1645.71 537.22 1646.59 550.964 1641.43 563.534C1636.44 576.162 1625.67 586.309 1609.11 593.974C1592.45 601.689 1577.69 603.367 1564.83 599.009C1552.02 594.759 1542.16 585.175 1535.25 570.257C1528.34 555.339 1527.38 541.566 1532.38 528.938C1537.43 516.418 1548.28 506.301 1564.94 498.585C1581.49 490.921 1596.17 489.213 1608.99 493.462C1621.96 497.771 1631.9 507.384 1638.8 522.302ZM1545.47 567.906C1546.78 570.737 1551.14 571.297 1558.54 569.586C1566.11 567.934 1577.09 563.377 1591.49 555.916C1605.89 548.455 1615.98 542.127 1621.78 536.932C1627.68 531.686 1629.97 527.648 1628.66 524.816C1627.35 521.985 1622.91 521.396 1615.35 523.048C1607.94 524.759 1597.04 529.345 1582.64 536.806C1568.24 544.267 1558.09 550.62 1552.19 555.866C1546.4 561.061 1544.16 565.075 1545.47 567.906Z" fill="#2E3B80"></path> <path d="M1691.7 672.628C1692.5 675.272 1692.58 677.439 1691.96 679.128C1691.49 680.898 1690.1 682.128 1687.8 682.817C1685.51 683.505 1683.32 683.723 1681.24 683.47C1679.19 683.331 1677.05 683.095 1674.82 682.761C1672.63 682.542 1670.2 682.392 1667.55 682.31C1664.93 682.344 1661.78 682.912 1658.1 684.014L1616.37 696.519C1611.54 697.965 1606.89 698.544 1602.42 698.256C1597.95 697.967 1593.8 696.644 1589.96 694.286C1586.16 692.044 1582.73 688.75 1579.67 684.404C1576.73 680.024 1574.28 674.558 1572.31 668.006C1568.18 654.212 1568.03 643.046 1571.86 634.507C1575.8 625.934 1582.72 620.166 1592.6 617.203L1640.71 602.787C1643.47 601.961 1645.47 600.921 1646.73 599.669C1648.02 598.531 1649.1 597.33 1649.97 596.066C1650.84 594.802 1651.79 593.578 1652.82 592.395C1653.99 591.292 1655.78 590.378 1658.2 589.655C1661.07 588.794 1663.31 588.938 1664.9 590.088C1666.61 591.204 1667.85 593.026 1668.61 595.555L1678.84 629.695C1679.63 632.338 1679.6 634.54 1678.75 636.298C1678.05 638.137 1676.26 639.487 1673.39 640.348C1670.97 641.071 1668.96 641.237 1667.34 640.846C1665.86 640.535 1664.42 640.092 1662.99 639.517C1661.6 639.057 1660.04 638.648 1658.3 638.292C1656.6 638.05 1654.37 638.342 1651.61 639.169L1608.51 652.086C1605.52 652.982 1602.77 654.056 1600.26 655.308C1597.79 656.675 1595.77 658.283 1594.19 660.134C1592.65 662.099 1591.63 664.345 1591.14 666.874C1590.76 669.368 1591.07 672.282 1592.07 675.615C1593 678.719 1594.29 681.15 1595.95 682.909C1597.71 684.634 1599.69 685.795 1601.87 686.394C1604.09 687.107 1606.48 687.332 1609.03 687.068C1611.73 686.885 1614.46 686.38 1617.22 685.554C1625.04 683.211 1631.55 680.07 1636.76 676.129C1642.11 672.268 1646.87 668.276 1651.02 664.151C1655.32 660.106 1659.38 656.32 1663.21 652.793C1667.19 649.346 1671.65 646.882 1676.59 645.4C1678.89 644.711 1680.69 644.861 1681.99 645.85C1683.44 646.92 1684.59 648.891 1685.45 651.765L1691.7 672.628Z" fill="#2E3B80"></path> <path d="M1641.88 808.848C1642.05 810.035 1641.65 810.946 1640.65 811.582C1639.67 812.337 1638.35 812.84 1636.69 813.092C1631.59 813.864 1626.84 814.158 1622.44 813.973C1618.16 813.771 1614.34 812.954 1610.97 811.523C1607.61 810.21 1604.8 808.086 1602.54 805.152C1600.41 802.319 1599 798.588 1598.3 793.961C1597.7 790.046 1597.74 786.643 1598.39 783.752C1599.16 780.844 1600.31 778.365 1601.82 776.316C1603.34 774.385 1605.17 772.834 1607.3 771.663C1609.57 770.592 1611.89 769.877 1614.26 769.517C1616.04 769.248 1617.96 769.08 1620.01 769.012C1622.06 768.944 1624.11 768.876 1626.17 768.808C1628.24 768.859 1630.24 768.859 1632.18 768.809C1634.11 768.759 1635.85 768.617 1637.39 768.384C1640.12 767.971 1642.26 766.859 1643.8 765.047C1645.35 763.235 1645.72 759.66 1644.91 754.32L1644.4 750.939L1622.51 754.251C1619.66 754.682 1617.53 755.43 1616.11 756.494C1614.71 757.676 1613.5 758.891 1612.48 760.139C1611.45 761.386 1610.29 762.533 1608.99 763.579C1607.83 764.726 1606 765.487 1603.51 765.864C1600.66 766.295 1598.48 765.898 1596.96 764.671C1595.58 763.546 1594.69 761.678 1594.29 759.068L1588.88 723.295C1588.48 720.685 1588.77 718.578 1589.74 716.974C1590.85 715.472 1592.83 714.505 1595.67 714.074C1598.17 713.697 1600.12 713.766 1601.53 714.28C1603.08 714.895 1604.52 715.588 1605.85 716.357C1607.18 717.127 1608.67 717.751 1610.32 718.229C1611.99 718.827 1614.25 718.91 1617.09 718.479L1674.76 709.753C1677.25 709.376 1679.09 708.673 1680.26 707.645C1681.46 706.736 1682.52 705.726 1683.45 704.615C1684.37 703.504 1685.36 702.444 1686.42 701.434C1687.5 700.542 1689.11 699.935 1691.25 699.612C1693.74 699.235 1695.63 699.736 1696.94 701.117C1698.36 702.48 1699.26 704.467 1699.66 707.077L1707.39 758.156C1709.22 770.258 1707.95 779.916 1703.58 787.131C1699.35 794.447 1693.02 798.742 1684.59 800.017C1678.9 800.879 1673.61 800.04 1668.74 797.501C1663.86 794.962 1659.83 790.778 1656.65 784.949C1656.98 787.933 1656.87 790.438 1656.33 792.462C1655.8 794.604 1654.97 796.308 1653.82 797.574C1652.82 798.94 1651.52 799.986 1649.93 800.712C1648.46 801.42 1646.89 801.899 1645.23 802.151C1644.04 802.33 1642.61 802.487 1640.93 802.619C1639.37 802.734 1637.74 802.798 1636.05 802.812C1634.37 802.945 1632.69 803.078 1631.01 803.211C1629.45 803.325 1628.13 803.464 1627.07 803.625C1626.35 803.733 1625.48 803.986 1624.45 804.385C1623.54 804.766 1623.16 805.49 1623.32 806.558C1623.59 808.338 1625.21 809.003 1628.18 808.555C1629.84 808.303 1631.24 807.969 1632.39 807.552C1633.68 807.236 1635.27 806.934 1637.17 806.647C1638.36 806.468 1639.4 806.552 1640.31 806.901C1641.21 807.25 1641.73 807.899 1641.88 808.848ZM1654.89 751.717C1655.65 756.701 1657.92 760.059 1661.7 761.793C1665.48 763.526 1670.55 763.366 1676.92 761.31C1682.71 759.463 1687.04 756.805 1689.91 753.336C1692.92 749.968 1694.48 746.637 1694.59 743.344L1654.54 749.404L1654.89 751.717Z" fill="#2E3B80"></path> <path d="M1713.71 932.246C1713.22 940.151 1711.47 947.016 1708.47 952.842C1705.46 958.668 1701.38 963.465 1696.22 967.234C1691.17 971.01 1685.12 973.701 1678.04 975.308C1671.08 977.042 1663.35 977.646 1654.85 977.12C1646.34 976.595 1638.68 975.099 1631.86 972.634C1625.15 970.295 1619.47 966.998 1614.8 962.742C1610.25 958.494 1606.85 953.234 1604.59 946.963C1602.33 940.811 1601.45 933.603 1601.96 925.339L1604.84 878.808C1605.01 876.053 1605.74 873.934 1607.03 872.451C1608.44 871.095 1610.64 870.51 1613.64 870.695C1616.15 870.851 1618.05 871.328 1619.32 872.128C1620.7 873.056 1621.91 873.972 1622.94 874.877C1624.07 875.909 1625.4 876.833 1626.91 877.647C1628.42 878.582 1630.61 879.138 1633.48 879.316L1687.92 882.681C1690.79 882.858 1693.03 882.576 1694.64 881.834C1696.24 881.211 1697.67 880.458 1698.93 879.574C1700.18 878.81 1701.49 878.049 1702.86 877.292C1704.34 876.662 1706.34 876.425 1708.85 876.581C1711.85 876.766 1713.9 877.614 1715.01 879.125C1716.23 880.764 1716.76 882.96 1716.59 885.715L1713.71 932.246ZM1612.69 918.067C1612.29 924.535 1615.66 929.372 1622.8 932.578C1629.93 935.784 1641.44 937.217 1657.34 936.877C1671.54 936.553 1682.41 934.88 1689.93 931.858C1697.44 928.956 1701.98 925.57 1703.54 921.699L1612.81 916.091L1612.69 918.067Z" fill="#2E3B80"></path> <path d="M1616.52 1083.32C1616.27 1084.5 1615.57 1085.21 1614.41 1085.45C1613.23 1085.82 1611.82 1085.83 1610.18 1085.48C1605.13 1084.42 1600.58 1083.03 1596.52 1081.32C1592.58 1079.63 1589.29 1077.53 1586.63 1075C1583.95 1072.6 1582.06 1069.63 1580.97 1066.09C1579.97 1062.69 1579.95 1058.7 1580.91 1054.12C1581.73 1050.24 1582.95 1047.07 1584.57 1044.59C1586.32 1042.13 1588.26 1040.21 1590.39 1038.82C1592.49 1037.55 1594.75 1036.74 1597.15 1036.38C1599.65 1036.17 1602.07 1036.32 1604.42 1036.81C1606.18 1037.18 1608.04 1037.7 1609.99 1038.35C1611.93 1039.01 1613.88 1039.66 1615.83 1040.32C1617.75 1041.09 1619.62 1041.79 1621.45 1042.42C1623.28 1043.05 1624.96 1043.53 1626.49 1043.85C1629.19 1044.42 1631.58 1044.12 1633.66 1042.97C1635.74 1041.81 1637.34 1038.59 1638.46 1033.31L1639.16 1029.96L1617.5 1025.4C1614.68 1024.81 1612.42 1024.76 1610.72 1025.26C1608.99 1025.88 1607.43 1026.59 1606.04 1027.4C1604.64 1028.21 1603.15 1028.88 1601.57 1029.4C1600.08 1030.07 1598.1 1030.15 1595.64 1029.63C1592.82 1029.03 1590.91 1027.9 1589.92 1026.21C1589.01 1024.68 1588.83 1022.61 1589.38 1020.03L1596.83 984.628C1597.38 982.044 1598.39 980.172 1599.86 979.01C1601.42 977.99 1603.61 977.777 1606.43 978.371C1608.9 978.89 1610.7 979.638 1611.84 980.615C1613.08 981.733 1614.19 982.886 1615.16 984.073C1616.14 985.259 1617.32 986.366 1618.69 987.392C1620.05 988.535 1622.13 989.404 1624.95 989.997L1682.02 1002.02C1684.49 1002.54 1686.45 1002.52 1687.92 1001.97C1689.36 1001.54 1690.7 1000.96 1691.96 1000.25C1693.21 999.529 1694.51 998.883 1695.86 998.309C1697.18 997.851 1698.9 997.845 1701.01 998.291C1703.48 998.81 1705.08 999.944 1705.82 1001.69C1706.67 1003.47 1706.82 1005.65 1706.28 1008.23L1695.63 1058.78C1693.11 1070.76 1688.54 1079.36 1681.92 1084.59C1675.39 1089.96 1667.96 1091.77 1659.62 1090.01C1653.99 1088.82 1649.33 1086.19 1645.65 1082.1C1641.98 1078.02 1639.67 1072.68 1638.72 1066.11C1637.99 1069.02 1637.01 1071.33 1635.79 1073.03C1634.55 1074.86 1633.17 1076.16 1631.66 1076.95C1630.24 1077.87 1628.65 1078.4 1626.91 1078.52C1625.28 1078.67 1623.65 1078.57 1622.01 1078.22C1620.83 1077.98 1619.44 1077.62 1617.82 1077.16C1616.31 1076.72 1614.77 1076.21 1613.17 1075.63C1611.55 1075.16 1609.93 1074.7 1608.31 1074.24C1606.81 1073.8 1605.53 1073.47 1604.48 1073.24C1603.77 1073.1 1602.87 1073.03 1601.76 1073.04C1600.77 1073.08 1600.17 1073.62 1599.94 1074.68C1599.57 1076.44 1600.85 1077.63 1603.79 1078.25C1605.43 1078.6 1606.87 1078.78 1608.09 1078.79C1609.41 1078.94 1611.01 1079.22 1612.88 1079.61C1614.06 1079.86 1615.01 1080.31 1615.73 1080.95C1616.45 1081.59 1616.72 1082.38 1616.52 1083.32ZM1648.72 1034.37C1647.68 1039.3 1648.63 1043.24 1651.56 1046.19C1654.5 1049.14 1659.31 1050.76 1665.99 1051.06C1672.06 1051.36 1677.04 1050.39 1680.95 1048.15C1684.95 1046.04 1687.58 1043.47 1688.83 1040.42L1649.2 1032.08L1648.72 1034.37Z" fill="#2E3B80"></path> <path d="M1584.75 1169.29C1583.82 1171.89 1582.49 1173.45 1580.77 1173.98C1579.01 1174.63 1576.99 1174.41 1574.7 1173.34L1553.57 1163.47C1551.27 1162.4 1549.86 1161 1549.33 1159.28C1548.76 1157.67 1548.98 1155.46 1549.99 1152.63L1573.24 1087.73C1574.17 1085.13 1575.46 1083.3 1577.12 1082.24C1578.85 1081.33 1581.12 1081.38 1583.95 1082.39C1586.32 1083.24 1588 1084.22 1589 1085.35C1590.08 1086.62 1590.98 1087.84 1591.71 1088.99C1592.52 1090.3 1593.54 1091.56 1594.76 1092.76C1595.95 1094.08 1597.9 1095.22 1600.61 1096.19L1651.95 1114.59C1654.66 1115.56 1656.9 1115.91 1658.65 1115.64C1660.36 1115.49 1661.94 1115.17 1663.39 1114.67C1664.81 1114.28 1666.28 1113.92 1667.8 1113.57C1669.4 1113.38 1671.39 1113.71 1673.76 1114.56C1676.58 1115.57 1678.32 1116.95 1678.96 1118.71C1679.68 1120.63 1679.57 1122.88 1678.64 1125.48L1655.27 1190.72C1653.41 1195.92 1650.35 1197.88 1646.09 1196.61L1627.25 1191.01C1624.8 1190.39 1623.03 1189.12 1621.93 1187.19C1620.91 1185.43 1620.9 1183.13 1621.91 1180.3C1623.21 1176.69 1625.4 1174.29 1628.51 1173.11C1631.72 1171.96 1635.06 1170.99 1638.53 1170.2C1642.08 1169.56 1645.44 1168.53 1648.62 1167.12C1651.88 1165.86 1654.19 1163.31 1655.57 1159.47L1656.6 1156.59L1619.49 1143.3L1618.4 1146.35C1617.59 1148.61 1617.49 1150.49 1618.1 1151.98C1618.82 1153.51 1619.65 1154.96 1620.57 1156.31C1621.44 1157.77 1622.21 1159.19 1622.86 1160.57C1623.63 1161.99 1623.69 1163.61 1623.04 1165.41C1622.23 1167.67 1620.93 1168.99 1619.14 1169.37C1617.42 1169.9 1615.26 1169.7 1612.66 1168.77L1598.76 1163.79C1596.28 1162.9 1594.48 1161.69 1593.38 1160.14C1592.23 1158.71 1592.07 1156.87 1592.88 1154.61C1593.52 1152.8 1594.54 1151.57 1595.92 1150.92C1597.41 1150.31 1598.96 1149.71 1600.57 1149.14C1602.25 1148.72 1603.8 1148.13 1605.22 1147.37C1606.76 1146.64 1607.93 1145.15 1608.74 1142.89L1609.83 1139.84L1570.51 1125.76L1569.48 1128.64C1568.63 1131.01 1568.53 1133.27 1569.16 1135.41C1569.87 1137.7 1570.92 1139.93 1572.32 1142.08C1573.82 1144.28 1575.46 1146.46 1577.24 1148.63C1579.01 1150.79 1580.6 1152.95 1581.99 1155.11C1583.46 1157.42 1584.49 1159.7 1585.08 1161.95C1585.75 1164.36 1585.64 1166.8 1584.75 1169.29Z" fill="#2E3B80"></path> <path d="M1525.99 1263.69C1523.31 1263.37 1521.03 1263.33 1519.15 1263.56C1517.27 1263.8 1515.55 1263.98 1513.99 1264.11C1512.48 1264.41 1510.95 1264.49 1509.39 1264.35C1507.95 1264.27 1506.27 1263.73 1504.35 1262.73C1501.91 1261.45 1500.41 1259.79 1499.85 1257.74C1499.35 1255.85 1499.57 1254 1500.52 1252.19L1517.62 1219.49C1519.01 1216.84 1520.68 1215.2 1522.62 1214.59C1524.51 1214.09 1527 1214.65 1530.08 1216.26C1532.31 1217.43 1533.98 1218.64 1535.08 1219.89C1536.19 1221.15 1537.43 1222.41 1538.8 1223.67C1540.17 1224.93 1541.95 1226.06 1544.13 1227.06C1546.26 1228.18 1549.46 1229.04 1553.75 1229.66L1557.92 1230.21L1566.35 1214.11C1561.97 1212.63 1558.23 1211.76 1555.12 1211.48C1552.02 1211.21 1549.2 1211.03 1546.68 1210.93C1544.1 1210.93 1541.61 1210.78 1539.2 1210.47C1536.79 1210.16 1534.1 1209.22 1531.12 1207.66C1529 1206.55 1527.84 1205.14 1527.66 1203.41C1527.42 1201.8 1527.99 1199.66 1529.38 1197.01L1541.56 1173.72C1542.51 1171.91 1543.79 1170.62 1545.42 1169.84C1547.15 1169.12 1548.97 1169.26 1550.89 1170.27C1552.91 1171.32 1554.65 1172.78 1556.12 1174.63C1557.59 1176.48 1559.08 1178.55 1560.6 1180.83C1562.11 1183.11 1563.81 1185.56 1565.7 1188.17C1567.52 1190.89 1569.81 1193.64 1572.55 1196.43L1607.25 1231.44C1609.1 1233.08 1610.7 1234.05 1612.03 1234.34C1613.42 1234.8 1614.81 1234.98 1616.21 1234.9C1617.55 1234.93 1618.94 1234.98 1620.39 1235.06C1621.84 1235.14 1623.57 1235.71 1625.59 1236.77C1628.04 1238.04 1629.51 1239.63 1630.02 1241.52C1630.62 1243.46 1630.46 1245.33 1629.51 1247.14L1616.66 1271.71C1615.44 1274.04 1614.02 1275.47 1612.4 1275.97C1610.83 1276.64 1608.92 1276.8 1606.67 1276.43L1525.99 1263.69ZM1568.6 1231.94L1601.43 1237.13C1597.53 1233.19 1593.49 1229.66 1589.31 1226.52C1585.23 1223.44 1580.75 1220.62 1575.86 1218.06L1568.6 1231.94Z" fill="#2E3B80"></path> <path d="M1449.16 1372.56C1446.71 1371.03 1444.64 1370.09 1442.96 1369.74C1441.28 1369.38 1439.74 1369.14 1438.35 1369C1436.88 1368.95 1435.44 1368.78 1434.03 1368.47C1432.61 1368.17 1430.89 1367.26 1428.87 1365.76C1426.46 1363.96 1425.19 1362.05 1425.07 1360.01C1425.04 1358.04 1425.81 1356 1427.38 1353.88L1449.42 1324.28C1450.99 1322.16 1452.78 1320.87 1454.77 1320.41C1456.85 1320.02 1459.2 1320.79 1461.79 1322.72C1464.01 1324.37 1465.51 1326.17 1466.31 1328.11C1467.11 1330.05 1467.83 1332 1468.46 1333.97C1469.09 1335.93 1469.93 1337.83 1470.96 1339.65C1472.03 1341.63 1473.97 1343.45 1476.78 1345.1L1512.83 1367.21L1464.71 1313.68C1463.15 1311.76 1462.46 1309.98 1462.64 1308.32C1462.92 1306.73 1463.92 1304.79 1465.64 1302.48C1467.22 1300.36 1468.75 1299.11 1470.24 1298.72C1471.75 1298.49 1473.65 1298.86 1475.93 1299.81L1544.83 1326.63C1542.99 1324.67 1541.08 1322.72 1539.08 1320.78C1537.11 1319.02 1535.01 1317.31 1532.8 1315.66C1526.44 1310.93 1520.76 1307.52 1515.73 1305.43C1510.73 1303.5 1506.19 1302.06 1502.11 1301.12C1497.95 1300.27 1494.13 1299.37 1490.65 1298.43C1487.19 1297.65 1483.82 1296.04 1480.55 1293.6C1478.53 1292.1 1477.56 1290.48 1477.65 1288.75C1477.67 1287.12 1478.58 1285.1 1480.37 1282.69L1492.62 1266.23C1493.91 1264.5 1495.42 1263.38 1497.14 1262.87C1498.97 1262.43 1500.7 1262.82 1502.33 1264.04C1504.26 1265.47 1505.84 1267.17 1507.07 1269.13C1508.23 1271.19 1509.45 1273.37 1510.73 1275.67C1511.94 1278.07 1513.37 1280.56 1515.04 1283.14C1516.7 1285.73 1518.92 1288.28 1521.69 1290.79L1555.14 1321.52C1557.23 1323.53 1559.09 1324.76 1560.7 1325.21C1562.23 1325.75 1563.74 1326.05 1565.2 1326.09C1566.59 1326.23 1568.03 1326.4 1569.52 1326.61C1571.11 1326.9 1572.91 1327.79 1574.93 1329.29C1577.24 1331.01 1578.5 1332.84 1578.7 1334.79C1578.82 1336.83 1578.06 1338.95 1576.41 1341.17L1560.62 1362.39C1558.97 1364.61 1557.32 1365.92 1555.66 1366.34C1554.03 1366.92 1552.08 1366.73 1549.79 1365.78L1518.17 1352.79L1540.87 1377.77C1542.54 1379.75 1543.36 1381.56 1543.34 1383.19C1543.25 1384.92 1542.38 1386.89 1540.73 1389.11L1520.74 1415.96C1519.17 1418.08 1517.38 1419.37 1515.39 1419.84C1513.5 1420.37 1511.35 1419.74 1508.94 1417.95C1506.92 1416.45 1505.55 1414.98 1504.82 1413.54C1504.19 1412.17 1503.65 1410.79 1503.19 1409.4C1502.65 1408.11 1501.94 1406.76 1501.05 1405.34C1500.25 1404 1498.63 1402.57 1496.17 1401.04L1449.16 1372.56Z" fill="#2E3B80"></path> <path d="M1459.38 1456.03C1456.76 1453.39 1453.5 1451.81 1449.6 1451.28C1445.69 1450.93 1441.45 1451 1436.87 1451.49C1432.37 1452.07 1427.57 1452.86 1422.48 1453.86C1417.46 1454.94 1412.46 1455.52 1407.45 1455.58C1402.53 1455.74 1397.74 1455.17 1393.07 1453.88C1388.41 1452.76 1384.13 1450.24 1380.25 1446.32C1377.12 1443.17 1374.71 1439.56 1373.03 1435.48C1371.26 1431.48 1370.56 1427.11 1370.91 1422.36C1371.27 1417.78 1372.77 1412.9 1375.42 1407.74C1377.99 1402.66 1381.95 1397.45 1387.32 1392.13C1391.83 1387.64 1396.47 1384.06 1401.23 1381.36C1406.07 1378.74 1410.75 1376.98 1415.25 1376.06C1419.75 1375.32 1423.95 1375.37 1427.85 1376.24C1431.66 1377.18 1434.88 1378.98 1437.5 1381.62C1440.97 1385.11 1442.69 1388.98 1442.68 1393.22C1442.75 1397.55 1440.57 1401.91 1436.14 1406.3C1431.88 1410.53 1427.59 1412.68 1423.26 1412.75C1418.93 1412.82 1414.99 1411.06 1411.44 1407.49C1407.55 1403.57 1404.21 1400.8 1401.42 1399.18C1398.62 1397.56 1396.2 1397.76 1394.16 1399.79C1392.97 1400.97 1392.41 1402.62 1392.49 1404.75C1392.57 1406.87 1393.83 1409.16 1396.28 1411.63C1399.33 1414.7 1402.97 1416.58 1407.21 1417.27C1411.36 1418.05 1415.77 1418.24 1420.44 1417.83C1425.11 1417.42 1429.99 1416.72 1435.09 1415.72C1440.18 1414.72 1445.11 1414.06 1449.86 1413.74C1454.7 1413.5 1459.32 1413.81 1463.73 1414.68C1468.14 1415.71 1472.03 1417.93 1475.41 1421.34C1478.46 1424.4 1480.69 1427.85 1482.12 1431.67C1483.55 1435.67 1484.04 1439.83 1483.6 1444.15C1483.16 1448.65 1481.7 1453.31 1479.23 1458.14C1476.66 1463.05 1472.95 1467.91 1468.1 1472.73C1458.56 1482.2 1449.55 1487.94 1441.05 1489.94C1432.65 1492.04 1426.03 1490.65 1421.21 1485.8C1417.49 1482.05 1415.77 1478.02 1416.04 1473.69C1416.22 1469.45 1418.4 1465.26 1422.58 1461.11C1426.41 1457.31 1430.62 1455.24 1435.2 1454.92C1439.7 1454.68 1443.72 1456.35 1447.27 1459.93C1453.61 1466.32 1458.19 1468.11 1461 1465.32C1461.85 1464.48 1462.28 1463.21 1462.29 1461.51C1462.38 1459.9 1461.41 1458.07 1459.38 1456.03Z" fill="#2E3B80"></path> <path d="M1258.33 1529.23C1256.13 1527.67 1254.15 1526.54 1252.39 1525.84C1250.62 1525.15 1249.03 1524.48 1247.59 1523.85C1246.13 1523.38 1244.75 1522.72 1243.45 1521.86C1242.22 1521.09 1241 1519.81 1239.8 1518.01C1238.27 1515.72 1237.75 1513.54 1238.25 1511.47C1238.72 1509.58 1239.8 1508.06 1241.49 1506.93L1272.18 1486.44C1274.68 1484.78 1276.92 1484.14 1278.92 1484.54C1280.82 1485 1282.73 1486.68 1284.66 1489.58C1286.06 1491.67 1286.95 1493.54 1287.31 1495.17C1287.68 1496.8 1288.17 1498.5 1288.77 1500.26C1289.37 1502.02 1290.38 1503.87 1291.81 1505.8C1293.15 1507.79 1295.55 1510.09 1299.01 1512.68L1302.4 1515.18L1317.52 1505.08C1314.39 1501.69 1311.53 1499.13 1308.93 1497.4C1306.34 1495.67 1303.95 1494.16 1301.79 1492.86C1299.53 1491.63 1297.41 1490.3 1295.45 1488.87C1293.48 1487.44 1291.57 1485.33 1289.7 1482.54C1288.37 1480.54 1288.04 1478.74 1288.7 1477.14C1289.27 1475.61 1290.8 1474.01 1293.29 1472.35L1315.15 1457.76C1316.84 1456.62 1318.59 1456.11 1320.39 1456.21C1322.25 1456.4 1323.78 1457.4 1324.98 1459.2C1326.25 1461.09 1327.08 1463.21 1327.48 1465.54C1327.88 1467.87 1328.2 1470.4 1328.44 1473.12C1328.67 1475.85 1328.99 1478.82 1329.39 1482.01C1329.69 1485.27 1330.38 1488.78 1331.44 1492.54L1345.1 1539.91C1345.94 1542.24 1346.87 1543.85 1347.9 1544.75C1348.9 1545.82 1350.04 1546.65 1351.3 1547.25C1352.47 1547.91 1353.66 1548.62 1354.9 1549.39C1356.13 1550.15 1357.38 1551.48 1358.64 1553.38C1360.18 1555.68 1360.71 1557.77 1360.24 1559.67C1359.85 1561.67 1358.8 1563.23 1357.1 1564.37L1334.05 1579.76C1331.85 1581.22 1329.92 1581.79 1328.26 1581.46C1326.56 1581.29 1324.81 1580.51 1323.01 1579.11L1258.33 1529.23ZM1310.95 1521.81L1337.27 1542.11C1335.73 1536.79 1333.88 1531.75 1331.72 1526.99C1329.62 1522.33 1327.03 1517.71 1323.97 1513.12L1310.95 1521.81Z" fill="#2E3B80"></path> <path d="M1196.32 1646.55C1195.28 1644.39 1194.71 1642.26 1194.63 1640.17C1194.43 1638.13 1194.32 1635.98 1194.3 1633.73C1194.16 1631.52 1193.89 1629.05 1193.5 1626.31C1193.04 1623.73 1191.98 1620.71 1190.3 1617.26L1169.45 1574.35C1168.19 1571.76 1166.9 1569.92 1165.57 1568.84C1164.13 1567.8 1162.77 1566.93 1161.49 1566.21C1160.16 1565.66 1158.85 1564.9 1157.58 1563.91C1156.24 1563.09 1155.03 1561.55 1153.93 1559.28C1152.61 1556.59 1152.37 1554.3 1153.2 1552.43C1153.97 1550.72 1155.6 1549.27 1158.08 1548.06L1179.77 1537.52C1182.15 1536.37 1184.24 1536.15 1186.06 1536.87C1187.77 1537.64 1189.32 1538.49 1190.7 1539.42L1249.36 1583.96C1248.74 1582.39 1248.14 1580.89 1247.56 1579.43C1246.88 1578.03 1246.23 1576.68 1245.6 1575.38C1243.29 1570.63 1240.76 1566.66 1238 1563.46C1235.25 1560.26 1232.46 1557.55 1229.64 1555.32C1226.82 1553.08 1224.03 1551.17 1221.26 1549.59C1218.38 1548.05 1215.71 1546.54 1213.26 1545.07C1210.81 1543.59 1208.57 1542.01 1206.55 1540.32C1204.53 1538.63 1202.92 1536.55 1201.71 1534.07C1200.66 1531.91 1200.57 1530.08 1201.45 1528.59C1202.22 1527.15 1203.95 1525.77 1206.65 1524.46L1225.27 1515.42C1227.64 1514.26 1229.74 1513.78 1231.56 1513.96C1233.44 1514.25 1234.87 1515.42 1235.87 1517.47C1236.92 1519.63 1237.54 1521.73 1237.73 1523.77C1237.81 1525.86 1237.87 1528.04 1237.9 1530.29C1237.98 1532.66 1238.25 1535.13 1238.7 1537.71C1239.1 1540.45 1240.11 1543.49 1241.74 1546.84L1262.58 1589.74C1263.84 1592.33 1265.19 1594.15 1266.62 1595.18C1267.95 1596.27 1269.31 1597.15 1270.7 1597.81C1272.09 1598.47 1273.45 1599.21 1274.78 1600.03C1276.06 1601.01 1277.25 1602.63 1278.35 1604.9C1279.66 1607.6 1279.88 1609.82 1279 1611.59C1278.17 1613.46 1276.57 1614.97 1274.2 1616.12L1252.5 1626.66C1250.13 1627.81 1248.08 1628.01 1246.38 1627.24C1244.72 1626.57 1243.09 1625.69 1241.49 1624.6L1182.91 1580.22C1183.48 1581.68 1184.11 1583.11 1184.79 1584.51C1185.37 1585.97 1185.99 1587.4 1186.68 1588.8C1190.14 1595.92 1194.05 1601.36 1198.41 1605.11C1202.71 1609.03 1206.97 1612.16 1211.18 1614.52C1215.34 1617.03 1219.18 1619.3 1222.69 1621.33C1226.11 1623.41 1228.7 1626.28 1230.49 1629.95C1231.53 1632.11 1231.62 1633.94 1230.75 1635.43C1229.92 1637.03 1228.16 1638.49 1225.46 1639.8L1207.01 1648.76C1204.52 1649.97 1202.4 1650.4 1200.63 1650.06C1198.81 1649.88 1197.37 1648.71 1196.32 1646.55Z" fill="#2E3B80"></path> <path d="M1127.85 1677.11C1120.31 1679.53 1113.28 1680.39 1106.76 1679.71C1100.24 1679.03 1094.29 1676.96 1088.9 1673.52C1083.55 1670.2 1078.84 1665.53 1074.78 1659.53C1070.63 1653.67 1067.26 1646.69 1064.66 1638.57C1062.06 1630.46 1060.67 1622.78 1060.49 1615.53C1060.23 1608.43 1061.24 1601.93 1063.51 1596.04C1065.82 1590.26 1069.48 1585.18 1074.5 1580.8C1079.41 1576.45 1085.81 1573.02 1093.69 1570.49L1138.09 1556.27C1140.72 1555.42 1142.96 1555.34 1144.81 1556C1146.58 1556.82 1147.93 1558.66 1148.84 1561.51C1149.61 1563.91 1149.86 1565.85 1149.57 1567.33C1149.21 1568.96 1148.8 1570.41 1148.33 1571.7C1147.78 1573.13 1147.4 1574.7 1147.19 1576.41C1146.87 1578.15 1147.14 1580.39 1148.02 1583.14L1164.66 1635.08C1165.54 1637.82 1166.62 1639.8 1167.89 1641.03C1169.06 1642.3 1170.28 1643.36 1171.56 1644.21C1172.72 1645.09 1173.91 1646.04 1175.11 1647.04C1176.24 1648.19 1177.18 1649.97 1177.95 1652.37C1178.87 1655.22 1178.82 1657.44 1177.82 1659.02C1176.73 1660.76 1174.88 1662.05 1172.25 1662.89L1127.85 1677.11ZM1104.37 1577.84C1098.19 1579.82 1094.91 1584.72 1094.52 1592.53C1094.12 1600.34 1096.97 1611.59 1103.06 1626.27C1108.52 1639.39 1114.03 1648.9 1119.57 1654.81C1125.01 1660.76 1129.81 1663.76 1133.98 1663.81L1106.25 1577.24L1104.37 1577.84Z" fill="#2E3B80"></path> <path d="M911.203 1661.31C908.577 1661.58 906.42 1661.14 904.731 1659.99C903.055 1658.96 902.067 1657.01 901.768 1654.15C901.506 1651.64 901.718 1649.63 902.404 1648.11C902.983 1646.72 903.687 1645.38 904.517 1644.09C905.347 1642.79 906.099 1641.33 906.772 1639.69C907.326 1638.06 907.454 1635.82 907.155 1632.95L904.892 1611.29C904.642 1608.9 905.357 1607.08 907.035 1605.82C908.606 1604.69 910.764 1603.98 913.509 1603.69C916.254 1603.41 918.66 1603.34 920.726 1603.48C922.673 1603.64 924.441 1603.82 926.03 1604.02C927.631 1604.33 929.167 1604.59 930.637 1604.8C931.987 1605.02 933.497 1605.05 935.168 1604.87C936.72 1604.71 938.187 1604.31 939.569 1603.69C940.951 1603.06 942.447 1602.36 944.055 1601.59C945.676 1600.94 947.656 1600.25 949.993 1599.52C952.21 1598.81 954.99 1598.28 958.332 1597.93C964.419 1597.29 970.213 1597.89 975.714 1599.73C981.095 1601.58 985.932 1604.57 990.225 1608.71C994.518 1612.85 998.088 1618.14 1000.93 1624.6C1003.79 1631.18 1005.67 1638.77 1006.57 1647.36C1007.47 1655.95 1007.16 1664.01 1005.66 1671.53C1004.16 1679.16 1001.48 1685.84 997.613 1691.55C993.626 1697.28 988.507 1701.97 982.254 1705.64C976.002 1709.31 968.579 1711.6 959.985 1712.49C953.54 1713.17 947.552 1713.01 942.019 1712.02C936.486 1711.03 931.654 1709.24 927.523 1706.66C923.285 1704.2 919.868 1700.94 917.271 1696.87C914.686 1692.92 913.113 1688.25 912.552 1682.88C912.028 1677.87 913.162 1673.71 915.953 1670.4C918.625 1667.11 923.005 1665.14 929.092 1664.5C934.94 1663.89 939.637 1664.97 943.184 1667.74C946.611 1670.52 948.574 1674.29 949.073 1679.07C949.41 1682.29 949.285 1685.14 948.699 1687.61C948.006 1690.22 947.784 1692.72 948.034 1695.1C948.295 1697.61 949.158 1699.51 950.62 1700.8C952.095 1702.22 954.205 1702.78 956.95 1702.5C960.053 1702.17 962.601 1700.58 964.595 1697.72C966.481 1694.98 967.844 1691.28 968.683 1686.61C969.522 1681.94 969.856 1676.47 969.685 1670.22C969.407 1664.09 968.596 1657.48 967.251 1650.38C965.856 1642.81 964.354 1636.51 962.743 1631.49C961.014 1626.48 959.271 1622.5 957.514 1619.55C955.758 1616.59 954.029 1614.48 952.328 1613.21C950.639 1612.06 949.079 1611.56 947.647 1611.71C946.095 1611.87 945.03 1612.65 944.451 1614.04C943.884 1615.54 943.819 1618.38 944.256 1622.56L944.929 1629.01C945.228 1631.87 945.877 1634.04 946.874 1635.5C947.752 1636.98 948.731 1638.26 949.811 1639.36C950.89 1640.45 951.916 1641.61 952.889 1642.83C953.755 1644.19 954.318 1646.12 954.58 1648.63C954.88 1651.49 954.316 1653.6 952.889 1654.96C951.474 1656.44 949.454 1657.31 946.829 1657.58L911.203 1661.31Z" fill="#2E3B80"></path> <path d="M790.809 1640.28C789.61 1640.23 788.794 1639.65 788.36 1638.55C787.806 1637.45 787.565 1636.06 787.636 1634.38C787.855 1629.22 788.476 1624.51 789.499 1620.23C790.516 1616.07 792.05 1612.47 794.101 1609.43C796.032 1606.39 798.654 1604.04 801.967 1602.38C805.156 1600.83 809.088 1600.16 813.764 1600.36C817.72 1600.53 821.054 1601.21 823.766 1602.4C826.473 1603.72 828.687 1605.32 830.409 1607.19C832.011 1609.06 833.183 1611.15 833.926 1613.47C834.543 1615.89 834.801 1618.31 834.699 1620.71C834.623 1622.5 834.421 1624.42 834.095 1626.44C833.769 1628.47 833.442 1630.5 833.116 1632.53C832.67 1634.55 832.286 1636.52 831.965 1638.43C831.643 1640.33 831.45 1642.07 831.384 1643.63C831.266 1646.38 831.949 1648.69 833.431 1650.56C834.913 1652.42 838.352 1653.47 843.747 1653.7L847.164 1653.84L848.104 1631.72C848.226 1628.85 847.9 1626.61 847.127 1625.02C846.234 1623.42 845.274 1622 844.246 1620.75C843.218 1619.51 842.315 1618.15 841.537 1616.67C840.633 1615.31 840.235 1613.37 840.342 1610.86C840.464 1607.98 841.273 1605.91 842.768 1604.65C844.137 1603.51 846.141 1602.99 848.779 1603.11L884.926 1604.64C887.564 1604.75 889.576 1605.44 890.964 1606.7C892.227 1608.08 892.797 1610.2 892.675 1613.08C892.568 1615.6 892.127 1617.5 891.352 1618.79C890.451 1620.19 889.496 1621.47 888.486 1622.63C887.476 1623.79 886.578 1625.13 885.793 1626.66C884.887 1628.18 884.373 1630.38 884.251 1633.26L881.776 1691.53C881.669 1694.04 882.007 1695.98 882.79 1697.34C883.454 1698.68 884.242 1699.92 885.155 1701.04C886.069 1702.16 886.92 1703.34 887.708 1704.57C888.376 1705.8 888.665 1707.49 888.573 1709.65C888.466 1712.17 887.61 1713.93 886.006 1714.95C884.396 1716.08 882.273 1716.59 879.635 1716.48L828.022 1714.29C815.793 1713.77 806.556 1710.67 800.311 1705C793.941 1699.45 790.937 1692.41 791.298 1683.9C791.543 1678.15 793.378 1673.12 796.803 1668.82C800.229 1664.52 805.107 1661.37 811.438 1659.35C808.446 1659.11 806.008 1658.52 804.126 1657.6C802.123 1656.68 800.611 1655.53 799.588 1654.17C798.44 1652.92 797.661 1651.44 797.253 1649.74C796.84 1648.16 796.669 1646.53 796.74 1644.86C796.791 1643.66 796.912 1642.22 797.103 1640.55C797.289 1638.99 797.538 1637.38 797.849 1635.71C798.04 1634.04 798.231 1632.37 798.423 1630.69C798.609 1629.14 798.725 1627.82 798.77 1626.75C798.801 1626.03 798.719 1625.12 798.525 1624.03C798.326 1623.06 797.687 1622.56 796.608 1622.51C794.81 1622.43 793.847 1623.89 793.72 1626.89C793.648 1628.57 793.707 1630.01 793.896 1631.22C793.96 1632.55 793.951 1634.17 793.87 1636.09C793.819 1637.29 793.536 1638.29 793.02 1639.11C792.505 1639.93 791.768 1640.32 790.809 1640.28ZM844.391 1664C839.355 1663.78 835.625 1665.36 833.199 1668.74C830.773 1672.12 829.96 1677.13 830.759 1683.77C831.464 1689.81 833.243 1694.57 836.098 1698.05C838.828 1701.65 841.798 1703.82 845.01 1704.56L846.729 1664.09L844.391 1664Z" fill="#2E3B80"></path> <path d="M719.017 1692.97C719.404 1690.48 720.123 1688.58 721.174 1687.29C722.088 1686.1 723.111 1684.98 724.244 1683.94C725.376 1682.9 726.477 1681.68 727.547 1680.27C728.498 1678.83 729.194 1676.7 729.636 1673.85L738.003 1619.96C738.445 1617.11 738.43 1614.86 737.957 1613.21C737.367 1611.54 736.689 1610.04 735.924 1608.7C735.142 1607.49 734.505 1606.11 734.014 1604.58C733.387 1603.15 733.266 1601.19 733.653 1598.7C734.113 1595.73 735.215 1593.72 736.959 1592.65C738.685 1591.71 740.852 1591.43 743.461 1591.84L778.679 1597.31C781.406 1597.73 783.449 1598.66 784.806 1600.08C786.026 1601.61 786.407 1603.85 785.946 1606.81C785.56 1609.31 784.909 1611.15 783.995 1612.34C782.944 1613.64 781.921 1614.75 780.925 1615.69C779.793 1616.73 778.751 1617.96 777.8 1619.39C776.731 1620.81 775.975 1622.94 775.533 1625.78L767.166 1679.68C766.724 1682.52 766.799 1684.78 767.39 1686.45C767.862 1688.1 768.48 1689.6 769.245 1690.93C769.891 1692.24 770.527 1693.62 771.155 1695.05C771.645 1696.58 771.697 1698.6 771.311 1701.09C770.851 1704.05 769.817 1706.01 768.21 1706.98C766.466 1708.04 764.23 1708.37 761.503 1707.94L726.285 1702.47C723.676 1702.07 721.702 1701.1 720.363 1699.55C719.006 1698.13 718.557 1695.93 719.017 1692.97Z" fill="#2E3B80"></path> <path d="M615.009 1668.58C615.628 1666.26 616.591 1664.28 617.898 1662.64C619.089 1660.97 620.411 1659.28 621.865 1657.56C623.202 1655.8 624.617 1653.76 626.11 1651.42C627.455 1649.17 628.623 1646.19 629.614 1642.48L641.915 1596.4C642.658 1593.61 642.883 1591.38 642.589 1589.68C642.18 1587.96 641.724 1586.41 641.222 1585.03C640.573 1583.74 640.087 1582.31 639.762 1580.73C639.291 1579.24 639.381 1577.28 640.031 1574.84C640.804 1571.94 642.115 1570.06 643.963 1569.18C645.663 1568.4 647.847 1568.36 650.514 1569.07L673.818 1575.29C676.368 1575.97 678.096 1577.18 679 1578.91C679.788 1580.61 680.402 1582.26 680.842 1583.87L696.072 1655.94C696.621 1654.35 697.155 1652.81 697.673 1651.34C698.075 1649.83 698.462 1648.38 698.834 1646.99C700.195 1641.89 700.881 1637.23 700.889 1633C700.898 1628.78 700.567 1624.91 699.895 1621.37C699.223 1617.84 698.358 1614.57 697.3 1611.55C696.126 1608.51 695.095 1605.62 694.206 1602.9C693.318 1600.18 692.662 1597.52 692.237 1594.93C691.813 1592.33 691.956 1589.7 692.668 1587.03C693.287 1584.71 694.416 1583.27 696.055 1582.72C697.578 1582.13 699.788 1582.22 702.687 1583L722.687 1588.34C725.237 1589.02 727.143 1590.02 728.402 1591.35C729.631 1592.8 729.951 1594.62 729.363 1596.82C728.744 1599.14 727.84 1601.14 726.649 1602.81C725.342 1604.44 723.962 1606.13 722.508 1607.85C721.024 1609.69 719.608 1611.73 718.263 1613.98C716.771 1616.32 715.545 1619.28 714.585 1622.87L702.284 1668.96C701.541 1671.74 701.374 1674 701.783 1675.72C702.077 1677.41 702.532 1678.96 703.15 1680.37C703.769 1681.78 704.313 1683.23 704.784 1684.72C705.109 1686.3 704.946 1688.3 704.296 1690.74C703.522 1693.63 702.227 1695.46 700.41 1696.22C698.563 1697.09 696.363 1697.19 693.813 1696.51L670.509 1690.29C667.958 1689.61 666.289 1688.42 665.501 1686.71C664.682 1685.13 664.025 1683.4 663.531 1681.53L648.254 1609.64C647.736 1611.12 647.276 1612.61 646.874 1614.12C646.355 1615.59 645.895 1617.08 645.493 1618.59C643.45 1626.24 642.85 1632.91 643.691 1638.6C644.385 1644.38 645.555 1649.53 647.2 1654.07C648.699 1658.69 650.116 1662.92 651.452 1666.76C652.673 1670.56 652.757 1674.43 651.705 1678.37C651.086 1680.69 649.957 1682.13 648.318 1682.69C646.648 1683.36 644.364 1683.31 641.466 1682.54L621.64 1677.24C618.973 1676.53 617.083 1675.47 615.971 1674.05C614.711 1672.72 614.391 1670.9 615.009 1668.58Z" fill="#2E3B80"></path> <path d="M527.911 1561.77C525.815 1560.87 525.521 1558.66 527.03 1555.12C529.058 1550.38 531.417 1546.23 534.108 1542.69C536.641 1539.2 539.514 1536.45 542.727 1534.43C545.939 1532.41 549.444 1531.23 553.241 1530.9C556.991 1530.67 561.017 1531.48 565.321 1533.32C568.741 1534.78 571.509 1536.55 573.622 1538.63C575.625 1540.66 577.077 1542.91 577.978 1545.38C578.878 1547.86 579.22 1550.42 579.002 1553.06C578.737 1555.82 578.015 1558.58 576.836 1561.34C576.034 1563.21 575.051 1565.21 573.887 1567.32C572.676 1569.54 571.465 1571.77 570.254 1573.99C568.933 1576.16 567.714 1578.25 566.597 1580.26C565.433 1582.37 564.521 1584.2 563.861 1585.74C561.598 1591.04 562.562 1594.58 566.755 1596.37C568.852 1597.27 570.932 1597.44 572.996 1596.89C575.012 1596.45 576.753 1595.88 578.217 1595.21L586.847 1575.01C587.979 1572.36 588.521 1570.18 588.472 1568.46C588.312 1566.7 588.082 1565.1 587.781 1563.67C587.37 1562.19 587.116 1560.64 587.02 1559.03C586.767 1557.49 587.135 1555.56 588.125 1553.24C589.257 1550.59 590.8 1548.97 592.753 1548.37C594.549 1547.83 596.715 1548.11 599.253 1549.19L630.371 1562.49C632.798 1563.53 634.493 1564.9 635.456 1566.62C636.372 1568.45 636.264 1570.68 635.132 1573.33C634.142 1575.65 633.056 1577.27 631.876 1578.2C630.537 1579.2 629.191 1580.06 627.837 1580.78C626.482 1581.51 625.167 1582.45 623.892 1583.6C622.507 1584.71 621.248 1586.58 620.116 1589.23L598.683 1639.38C597.551 1642.03 597.065 1644.24 597.224 1646C597.273 1647.72 597.503 1649.32 597.914 1650.8C598.326 1652.28 598.658 1653.79 598.912 1655.34C599.008 1656.94 598.561 1658.9 597.571 1661.22C596.439 1663.87 594.896 1665.5 592.943 1666.1C590.99 1666.7 588.799 1666.48 586.372 1665.44L555.254 1652.14C552.716 1651.06 551.045 1649.63 550.239 1647.85C549.324 1646.02 549.432 1643.78 550.563 1641.13C551.554 1638.82 552.718 1637.16 554.056 1636.17C555.237 1635.23 556.505 1634.41 557.859 1633.68C559.103 1632.91 560.418 1631.97 561.803 1630.86C563.079 1629.71 564.282 1627.81 565.414 1625.16L574.397 1604.14C570.067 1606.34 566.516 1608.54 563.745 1610.75C560.863 1612.91 558.455 1615.34 556.52 1618.04C554.427 1620.79 552.547 1623.97 550.881 1627.57C549.214 1631.16 547.296 1635.5 545.127 1640.57C543.382 1644.65 540.027 1645.63 535.061 1643.51L507.751 1631.84C505.765 1630.99 504.566 1629.83 504.155 1628.35C503.633 1626.82 503.726 1625.23 504.433 1623.57C505.235 1621.7 506.541 1620.17 508.352 1618.98C510.006 1617.86 512.305 1616.76 515.25 1615.67C518.149 1614.69 521.63 1613.56 525.694 1612.3C529.6 1611.1 534.263 1609.5 539.681 1607.51L550.407 1603.48C548.831 1603.2 547.224 1602.84 545.584 1602.4C543.835 1601.91 542.022 1601.27 540.146 1600.47C533.415 1597.59 529.22 1593.97 527.561 1589.61C525.745 1585.31 526.039 1580.34 528.445 1574.72C529.058 1573.28 529.899 1571.62 530.968 1569.73C531.928 1567.79 532.966 1565.82 534.082 1563.82C535.199 1561.81 536.292 1559.87 537.362 1557.97C538.321 1556.03 539.083 1554.4 539.649 1553.08C540.027 1552.2 540.364 1551.1 540.662 1549.79C540.96 1548.48 540.613 1547.62 539.62 1547.19C537.965 1546.49 536.547 1547.51 535.369 1550.27C534.708 1551.82 534.198 1553.16 533.836 1554.31C533.428 1555.57 532.846 1557.09 532.092 1558.85C531.62 1559.96 531.054 1560.82 530.393 1561.46C529.621 1562.04 528.794 1562.14 527.911 1561.77Z" fill="#2E3B80"></path> <path d="M457.234 1584.22C459.15 1581.04 459.883 1577.49 459.432 1573.58C458.816 1569.71 457.707 1565.61 456.104 1561.29C454.44 1557.07 452.497 1552.61 450.277 1547.92C447.995 1543.33 446.207 1538.61 444.913 1533.78C443.557 1529.04 442.932 1524.26 443.037 1519.42C442.978 1514.63 444.37 1509.86 447.212 1505.13C449.499 1501.32 452.412 1498.11 455.954 1495.47C459.392 1492.78 463.457 1491.02 468.15 1490.2C472.678 1489.42 477.771 1489.68 483.43 1490.98C488.986 1492.22 495.004 1494.78 501.485 1498.68C506.937 1501.95 511.555 1505.57 515.34 1509.52C519.062 1513.58 521.921 1517.67 523.915 1521.81C525.744 1525.99 526.72 1530.07 526.841 1534.07C526.86 1538 525.911 1541.56 523.996 1544.75C521.462 1548.96 518.137 1551.59 514.02 1552.61C509.842 1553.74 505.079 1552.7 499.729 1549.49C494.586 1546.4 491.45 1542.76 490.32 1538.59C489.19 1534.41 489.923 1530.16 492.518 1525.84C495.361 1521.11 497.225 1517.19 498.112 1514.08C498.998 1510.97 498.207 1508.68 495.739 1507.19C494.298 1506.33 492.559 1506.19 490.522 1506.79C488.484 1507.39 486.569 1509.17 484.777 1512.16C482.553 1515.86 481.624 1519.85 481.993 1524.13C482.258 1528.35 483.161 1532.68 484.702 1537.1C486.244 1541.53 488.124 1546.09 490.344 1550.78C492.565 1555.47 494.414 1560.08 495.894 1564.61C497.311 1569.24 498.142 1573.8 498.387 1578.29C498.467 1582.82 497.271 1587.14 494.799 1591.25C492.575 1594.95 489.785 1597.97 486.429 1600.29C482.908 1602.66 478.997 1604.16 474.696 1604.79C470.23 1605.47 465.353 1605.2 460.064 1603.98C454.673 1602.7 449.046 1600.3 443.182 1596.78C431.661 1589.86 423.886 1582.53 419.856 1574.79C415.765 1567.15 415.48 1560.4 419.002 1554.54C421.721 1550.01 425.211 1547.35 429.471 1546.55C433.629 1545.69 438.228 1546.77 443.269 1549.8C447.898 1552.58 450.931 1556.15 452.369 1560.51C453.705 1564.82 453.075 1569.13 450.48 1573.45C445.845 1581.16 445.225 1586.04 448.62 1588.08C449.648 1588.7 450.986 1588.8 452.633 1588.39C454.218 1588.08 455.751 1586.69 457.234 1584.22Z" fill="#2E3B80"></path> </svg> 