<?xml version="1.0" encoding="UTF-8"?> <svg xmlns="http://www.w3.org/2000/svg" width="159" height="14" viewBox="0 0 159 14" fill="none"> <g opacity="0.6"> <mask id="mask0_2918_591" style="mask-type:luminance" maskUnits="userSpaceOnUse" x="68" y="0" width="91" height="14"> <path d="M158.328 0H68.3281V14H158.328V0Z" fill="white"></path> </mask> <g mask="url(#mask0_2918_591)"> <path d="M78.4022 0.228516H68.3281V13.7724H78.4022C84.6951 13.7724 87.2841 10.7058 87.2841 7.00044C87.2841 3.29505 84.6951 0.228516 78.4022 0.228516ZM78.1132 10.4771H72.0738V3.53015H78.1132C82.6677 3.53015 83.4421 5.1043 83.4421 7.00044C83.4421 8.8966 82.6784 10.4771 78.1132 10.4771Z" fill="#EEF1FF"></path> <path d="M112.689 0.228516H108.949V13.7711H112.689V0.228516Z" fill="#EEF1FF"></path> <path d="M103.28 0.228516L96.8 9.9635L90.318 0.228516H85.918L94.934 13.7711H98.665L107.68 0.228516H103.28Z" fill="#EEF1FF"></path> <path d="M153.927 13.7704H158.328L149.311 0.226562H144.591L135.574 13.7704H139.972L141.64 11.2661H152.256L153.927 13.7704ZM143.672 8.2187L146.952 3.29309L150.231 8.2187H143.672Z" fill="#EEF1FF"></path> <path d="M124.643 3.26841C129.391 3.26841 134.14 4.07849 134.974 4.22798V0.89441C134.365 0.76663 130.573 0 124.648 0C120.528 0 117.561 0.98768 115.825 2.93876C114.271 4.68285 114.321 6.59432 114.321 6.61349V6.63521C114.273 7.39003 114.366 8.1475 114.592 8.8633C114.819 9.5792 115.176 10.239 115.642 10.8044C116.406 11.7423 117.472 12.4897 118.81 13.0213C120.451 13.6703 122.519 14 124.956 14C130.768 14 134.404 13.0021 134.974 12.8334V5.40732H123.03V8.1212H131.379V10.3495C129.212 10.7076 127.022 10.8785 124.83 10.8606C121.841 10.8606 119.82 10.2026 118.823 8.907C118.092 7.95637 118.196 7.00447 118.218 6.86264C118.208 6.73487 118.187 5.91458 118.876 5.08533C119.879 3.87789 121.819 3.26841 124.643 3.26841Z" fill="#EEF1FF"></path> </g> </g> <path d="M0.441406 0.183594H2.78141L6.90341 11.0376L10.8814 0.183594H13.2394V12.9996H11.6374V2.30759L7.62341 12.9996H6.14741L2.06141 2.30759V12.9996H0.441406V0.183594Z" fill="#9B9DA5"></path> <path d="M23.6991 11.7756V12.9636C23.3751 13.0896 22.9971 13.1436 22.6551 13.1436C21.7911 13.1436 21.3231 12.6576 21.3051 11.7756C20.3871 12.8016 19.3791 13.2516 17.9391 13.2516C16.1031 13.2516 14.9691 12.2436 14.9691 10.6236C14.9691 8.96759 16.0671 7.99559 18.2631 7.72559C20.4771 7.45559 21.2331 7.50959 21.2331 6.24959C21.2331 5.25959 20.4951 4.71959 19.1271 4.71959C17.7051 4.71959 16.9671 5.24159 16.8231 6.60959H15.3291C15.3831 4.62959 16.8231 3.45959 19.2171 3.45959C20.4591 3.45959 21.5211 3.78359 22.1331 4.35959C22.7811 4.98959 22.7631 5.94359 22.7631 6.77159C22.7631 8.15759 22.6911 9.52559 22.6911 10.9116C22.6911 11.5956 22.8531 11.8296 23.3211 11.8296C23.4651 11.8296 23.5371 11.8116 23.6991 11.7756ZM21.2331 8.17559C20.6571 8.60759 19.8651 8.64359 19.1811 8.73359C18.0651 8.87759 16.5531 9.00359 16.5531 10.4976C16.5531 11.4516 17.2551 12.0456 18.4071 12.0456C19.8471 12.0456 21.2331 11.0556 21.2331 9.86759V8.17559Z" fill="#9B9DA5"></path> <path d="M33.1511 0.183594V12.9996H31.7111V11.6316C31.1351 12.6936 30.0731 13.2516 28.6511 13.2516C26.0231 13.2516 24.3491 11.3616 24.3491 8.33759C24.3491 5.70959 25.7171 3.44159 28.5791 3.44159C29.9291 3.44159 30.9371 3.96359 31.6211 4.95359V0.183594H33.1511ZM28.7771 4.75559C27.0311 4.75559 25.9331 6.12359 25.9331 8.30159C25.9331 10.5516 27.0491 11.9916 28.8131 11.9916C30.5951 11.9916 31.6571 10.6236 31.6571 8.35559C31.6571 6.50159 30.8651 4.75559 28.7771 4.75559Z" fill="#9B9DA5"></path> <path d="M43.029 10.0656C42.561 12.2076 41.175 13.3056 38.979 13.3056C36.243 13.3056 34.605 11.5056 34.605 8.48159C34.605 5.47559 36.351 3.44159 38.925 3.44159C41.985 3.44159 43.137 5.87159 43.137 8.55359V8.76959H36.153L36.135 8.87759C36.135 10.8576 37.233 12.0456 39.033 12.0456C40.365 12.0456 41.103 11.4696 41.535 10.0656H43.029ZM41.553 7.52759C41.409 5.76359 40.419 4.70159 38.889 4.70159C37.395 4.70159 36.351 5.78159 36.153 7.52759H41.553Z" fill="#9B9DA5"></path> <path d="M50.6687 0.183594V2.05559H49.1207V0.183594H50.6687ZM50.6687 3.71159V12.9996H49.1207V3.71159H50.6687Z" fill="#9B9DA5"></path> <path d="M54.119 3.71159V5.15159C54.893 4.01759 55.865 3.45959 57.287 3.45959C59.555 3.45959 60.383 4.70159 60.383 6.82559V12.9996H58.853V7.52759C58.853 6.05159 58.781 4.79159 56.855 4.79159C54.857 4.79159 54.209 6.30359 54.209 8.13959V12.9996H52.679V3.71159H54.119Z" fill="#9B9DA5"></path> </svg> 