<?xml version="1.0" encoding="UTF-8"?> <svg xmlns="http://www.w3.org/2000/svg" width="230" height="96" viewBox="0 0 230 96" fill="none"> <path d="M21.0392 22.9333V72.9333C21.0392 76 22.3541 77.4667 23.9321 77.4667C25.6415 77.4667 27.2194 75.7333 27.2194 72V56.9333H23.4061V43.0667H48.2586V94.6667H33.9257V86.2667H32.4792C30.7698 92.5333 24.721 96 18.5408 96C9.73062 96 0 88.8 0 71.3333V24.4C0 8.13333 8.81015 0 23.8006 0C38.9225 0 48.2586 8.53333 48.2586 24.4V39.4667H27.2194V22.9333C27.2194 19.6 25.773 18.4 24.1951 18.4C22.4856 18.4 21.0392 19.6 21.0392 22.9333Z M52.0032 1.17711H75.5621C90.8294 1.17711 99.7792 9.44828 99.7792 26.2574V26.7911C99.7792 42.1328 92.4088 49.7369 86.3545 50.1371V51.6046C92.2772 52.0048 99.7792 60.5428 99.7792 74.5504V75.6177C99.7792 83.2218 99.9108 89.0917 101.095 94.6947H80.1687C78.9841 88.9583 78.8525 82.6882 78.8525 75.4843V64.6784C78.8525 61.3432 77.9312 60.1426 75.2989 60.1426H73.0615V94.6947H52.0032V1.17711ZM73.0615 19.7205V41.5991H75.2989C77.9312 41.5991 78.8525 40.2651 78.8525 36.9299V24.2564C78.8525 21.0546 77.9312 19.7205 75.2989 19.7205H73.0615Z M104.262 1.3079H125.32V94.6921H104.262V1.3079Z M156.825 1.3079H177.883V94.6921H154.982L145.638 38.795H144.453L149.06 94.6921H128.001V1.3079H150.902L160.773 57.6052H161.958L156.825 1.3079Z M201.835 1.43869V38.9258H203.546L207.099 1.43869H229.342L220.787 48.1308L230 94.6895H207.626L203.546 57.3358H201.835V94.6895H180.776V1.43869H201.835Z" fill="white"></path> </svg> 