<?xml version="1.0" encoding="UTF-8"?> <svg xmlns="http://www.w3.org/2000/svg" width="279" height="137" viewBox="0 0 279 137" fill="none"> <mask id="mask0_22_445" style="mask-type:alpha" maskUnits="userSpaceOnUse" x="0" y="0" width="279" height="137"> <rect x="278.377" y="0.606445" width="136" height="278" transform="rotate(90 278.377 0.606445)" fill="#D9D9D9"></rect> </mask> <g mask="url(#mask0_22_445)"> <path d="M139.192 -124.126C210.348 -124.126 268.007 -66.6416 268.007 4.2403C268.007 75.1222 210.348 132.606 139.192 132.606C68.037 132.606 10.3774 75.1222 10.3774 4.24031C10.3774 -66.6416 68.037 -124.126 139.192 -124.126Z" fill="#FEF7E5" stroke="#FF6844" stroke-width="8"></path> <circle cx="139.192" cy="4.68731" r="113.559" transform="rotate(-90 139.192 4.68731)" fill="#FFBB55" stroke="#FF6844" stroke-width="8"></circle> <rect x="23.3774" y="7.96973" width="8" height="232.426" transform="rotate(-90 23.3774 7.96973)" fill="#FF6844"></rect> <rect x="135.377" y="-112.03" width="8" height="232.426" fill="#FF6844"></rect> <rect x="60.3774" y="88.9697" width="8" height="232.426" transform="rotate(-135 60.3774 88.9697)" fill="#FF6844"></rect> <rect x="54.3774" y="-75.0303" width="8" height="232.426" transform="rotate(-45 54.3774 -75.0303)" fill="#FF6844"></rect> <path d="M139.377 -7.12402C146.005 -7.12402 151.377 -1.75144 151.377 4.87598C151.377 11.5034 146.005 16.876 139.377 16.876C132.75 16.876 127.377 11.5034 127.377 4.87598C127.377 -1.75144 132.75 -7.12402 139.377 -7.12402Z" fill="#FFBB55" stroke="#FF6844" stroke-width="8"></path> </g> </svg> 