<?xml version="1.0" encoding="UTF-8"?> <svg xmlns="http://www.w3.org/2000/svg" width="266" height="265" viewBox="0 0 266 265" fill="none"> <path d="M132.815 4.21694C203.97 4.21694 261.63 61.7012 261.63 132.583C261.63 203.465 203.97 260.949 132.815 260.949C61.6596 260.949 4 203.465 3.99999 132.583C3.99999 61.7012 61.6596 4.21695 132.815 4.21694Z" fill="#FEF7E5" stroke="#FF6844" stroke-width="8"></path> <circle cx="132.815" cy="133.03" r="113.559" transform="rotate(-90 132.815 133.03)" fill="#FFBB55" stroke="#FF6844" stroke-width="8"></circle> <rect x="17" y="136.312" width="8" height="232.426" transform="rotate(-90 17 136.312)" fill="#FF6844"></rect> <rect x="129" y="16.3125" width="8" height="232.426" fill="#FF6844"></rect> <rect x="54" y="217.312" width="8" height="232.426" transform="rotate(-135 54 217.312)" fill="#FF6844"></rect> <rect x="48" y="53.3125" width="8" height="232.426" transform="rotate(-45 48 53.3125)" fill="#FF6844"></rect> <path d="M133 121.219C139.627 121.219 145 126.591 145 133.219C145 139.846 139.627 145.219 133 145.219C126.373 145.219 121 139.846 121 133.219C121 126.591 126.373 121.219 133 121.219Z" fill="#FFBB55" stroke="#FF6844" stroke-width="8"></path> </svg> 