<?xml version="1.0" encoding="UTF-8"?> <svg xmlns="http://www.w3.org/2000/svg" width="88" height="88" viewBox="0 0 88 88" fill="none"> <path d="M45.4206 9.73525L44 5.54238L42.5794 9.73525L42.5794 9.73538L42.5793 9.73545L42.5789 9.73668L42.5766 9.74334L42.5666 9.77269C42.5574 9.79929 42.5434 9.83984 42.5247 9.89364C42.4871 10.0012 42.4306 10.1618 42.3558 10.3696C42.2062 10.7854 41.9838 11.39 41.6951 12.1383C41.1173 13.636 40.2758 15.7039 39.2222 17.9828C37.0932 22.588 34.1785 27.8753 30.9185 31.1353C27.6585 34.3953 22.3712 37.31 17.766 39.439C15.4871 40.4926 13.4192 41.3341 11.9215 41.9119C11.1732 42.2006 10.5686 42.423 10.1528 42.5726C9.94499 42.6474 9.78444 42.7039 9.67684 42.7415C9.62305 42.7602 9.58249 42.7742 9.55589 42.7834L9.52654 42.7934L9.51988 42.7957L9.51866 42.7961L9.51859 42.7962L9.51845 42.7962L5.32558 44.2168L9.51845 45.6374L9.51859 45.6374L9.51866 45.6375L9.51988 45.6379L9.52654 45.6402L9.55589 45.6502C9.58249 45.6594 9.62305 45.6734 9.67684 45.6921C9.78445 45.7296 9.94499 45.7862 10.1528 45.861C10.5686 46.0106 11.1732 46.233 11.9215 46.5217C13.4192 47.0995 15.4871 47.941 17.766 48.9946C22.3712 51.1236 27.6585 54.0383 30.9185 57.2983C34.1785 60.5583 37.0932 65.8456 39.2222 70.4508C40.2758 72.7297 41.1173 74.7976 41.6951 76.2953C41.9838 77.0436 42.2062 77.6482 42.3558 78.064C42.4306 78.2718 42.4871 78.4324 42.5247 78.54C42.5434 78.5938 42.5574 78.6343 42.5666 78.6609L42.5766 78.6903L42.5789 78.6969L42.5793 78.6981L42.5794 78.6982L42.5794 78.6983L44 82.8912L45.4206 78.6983L45.4206 78.6982L45.4207 78.6981L45.4211 78.6969L45.4234 78.6903L45.4334 78.6609C45.4378 78.6483 45.4432 78.6325 45.4497 78.6136C45.4569 78.5928 45.4655 78.5682 45.4753 78.54C45.5129 78.4324 45.5694 78.2718 45.6442 78.064C45.7938 77.6482 46.0162 77.0436 46.3049 76.2953C46.8827 74.7976 47.7242 72.7297 48.7778 70.4508C50.9068 65.8456 53.8215 60.5583 57.0815 57.2983C60.3415 54.0383 65.6288 51.1236 70.234 48.9946C72.5129 47.941 74.5808 47.0995 76.0785 46.5217C76.8268 46.233 77.4314 46.0106 77.8472 45.861C78.055 45.7862 78.2156 45.7296 78.3232 45.6921C78.377 45.6734 78.4175 45.6594 78.4441 45.6502L78.4735 45.6402L78.4801 45.6379L78.4813 45.6375L78.4814 45.6374L78.4816 45.6374L82.6744 44.2168L78.4816 42.7962L78.4814 42.7962L78.4813 42.7961L78.4801 42.7957L78.4735 42.7934L78.4441 42.7834C78.4175 42.7742 78.377 42.7602 78.3232 42.7415C78.2156 42.7039 78.055 42.6474 77.8472 42.5726C77.4314 42.423 76.8268 42.2006 76.0785 41.9119C74.5808 41.3341 72.5129 40.4926 70.234 39.439C65.6288 37.31 60.3415 34.3953 57.0815 31.1353C53.8215 27.8753 50.9068 22.588 48.7778 17.9828C47.7242 15.7039 46.8827 13.636 46.3049 12.1383C46.0162 11.39 45.7938 10.7854 45.6442 10.3696C45.5694 10.1618 45.5129 10.0012 45.4753 9.89364C45.4566 9.83984 45.4426 9.79929 45.4334 9.77269L45.4234 9.74334L45.4211 9.73668L45.4207 9.73545L45.4206 9.73538L45.4206 9.73525Z" fill="#2E3B80" stroke="#2E3B80" stroke-width="3"></path> </svg> 