<?xml version="1.0" encoding="UTF-8"?> <svg xmlns="http://www.w3.org/2000/svg" width="1917" height="855" viewBox="0 0 1917 855" fill="none"> <path d="M1842.13 26.4997C1864.82 12.4364 1890.26 3.40023 1916.74 0V75.0016C1915.94 75.7588 1915.02 76.3801 1914.01 76.8415C1895.23 87.0632 1878.9 101.144 1863.85 116.144C1842.84 137.993 1824.65 162.295 1804.79 185.14C1787.08 205.783 1766.41 223.695 1743.46 238.293C1734.79 244.069 1725.7 249.194 1716.27 253.626C1715.3 254.06 1714.38 254.494 1713.49 254.954C1709.27 256.692 1705.08 258.379 1700.71 260.065C1699.41 260.5 1698.15 260.96 1696.85 261.445L1694.09 262.11C1679.66 266.547 1664.62 268.686 1649.52 268.447C1620.95 269.239 1592.9 262.851 1565.32 256.13C1534.45 248.464 1503.53 240.031 1471.72 237.399C1454.65 236.095 1437.09 236.76 1420.61 242.331C1401.16 249.422 1384.21 262.066 1371.88 278.694C1354.35 301.693 1344.28 329.317 1337.2 357.069C1327.54 395.4 1323.43 434.703 1315.38 473.264C1309.81 499.713 1302.6 526.238 1288.95 549.773C1278.2 568.351 1262.35 584.578 1242.34 593.011C1224.15 601.009 1203.71 601.929 1184.18 599.834C1149.89 595.26 1117.74 580.822 1087.79 564.365C1027.61 531.144 973.871 488.009 915.812 451.441C891.78 436.38 866.658 423.132 840.657 411.806C819.114 402.428 796.703 395.119 775.366 385.23C756.126 376.251 738.672 363.861 723.848 348.662C708.516 333.508 696.045 315.799 682.629 298.984C676.896 291.632 670.535 284.792 663.617 278.541C653.932 269.852 643.174 262.467 633.77 253.396C613.914 235.099 597.994 213.071 580.438 192.73C558.487 167.355 532.064 145.046 500.99 131.758C465.01 116.144 424.864 112.03 385.996 115.301C333.712 119.696 283.038 134.645 233.872 152.38C187.175 169.842 141.445 189.785 96.8758 212.126C65.4953 227.151 34.2169 243.302 0.178711 251.223V219.638C21.7465 216.24 42.4198 208.803 62.6332 200.754C92.8638 188.488 122.353 174.459 152.354 161.63C214.374 135.131 277.57 110.522 343.627 95.8283C395.962 84.4567 450.291 79.6014 503.597 87.6254C537.916 92.5318 571.724 102.958 601.239 121.51C623.983 135.54 643.25 154.245 663.387 171.648C672.694 179.353 681.446 187.705 689.58 196.64C697.302 206.466 703.52 217.387 708.03 229.042C717.843 252.603 725.203 277.187 737.239 299.751C746.482 318.052 759.617 334.109 775.723 346.796C792.18 359.573 811.883 367.035 831.381 373.858C857.354 382.519 882.85 392.551 907.762 403.91C953.504 424.941 995.081 453.485 1038.37 478.86C1068.34 496.365 1099.01 513.205 1132.23 523.708C1153.57 530.199 1176.49 534.16 1198.67 529.304C1216.72 525.45 1232.88 515.441 1244.36 500.99C1257.83 484.406 1265.7 464.167 1271.96 443.953C1286.76 393.969 1293.15 341.583 1312.64 292.979C1324.3 263.438 1341.47 235.124 1367 215.626C1382.4 203.671 1400.55 195.764 1419.79 192.628C1440.03 189.127 1460.68 190.839 1481.12 191.452C1502.87 192.321 1524.56 194.212 1546.39 195.387C1574.5 197.151 1603.35 197.534 1630.72 190.277C1651.64 184.502 1671.22 174.683 1688.37 161.375C1710.55 144.867 1729.89 125.011 1750.39 106.536C1779.88 78.7325 1807.19 47.8119 1842.13 26.4997Z" fill="#F8F2D8"></path> <path d="M342.605 146.042C367.853 141.698 393.714 139.117 419.268 142.209C443.025 144.835 465.974 152.38 486.654 164.365C502.791 174.107 517.246 186.395 529.458 200.754C560.991 236.121 578.215 281.709 610.03 316.872C623.063 331.719 639.06 343.551 655.184 354.846C676.803 369.974 698.422 385.23 721.625 398.032C742.149 409.012 763.321 418.732 785.025 427.138C807.099 435.798 828.636 445.764 849.524 456.986C869.026 467.737 887.922 479.553 906.127 492.378C945.199 519.568 982.789 548.853 1021.86 576.017C1053.5 597.943 1086.13 618.846 1121.24 634.792C1153.06 649.102 1187.68 659.733 1222.9 657.561C1251.63 656.008 1278.77 643.842 1299.05 623.42C1315.66 606.861 1327.46 586.086 1336.26 564.441C1346.91 537.993 1353.2 510.036 1358.39 482.08C1363.8 453.025 1367.71 423.663 1375.51 395.196C1381.41 373.858 1389.66 352.827 1402.98 334.99C1413.99 320.22 1428.79 307.826 1446.42 301.77C1460.86 296.659 1476.52 296.659 1491.5 298.856C1506.31 301.216 1520.86 305.016 1534.94 310.202C1562.38 319.887 1589.06 331.642 1616.71 340.867C1641.5 349.746 1667.22 355.748 1693.38 358.755C1722.59 361.898 1752.14 359.135 1780.26 350.629C1781.56 350.22 1782.82 349.837 1784.22 349.479C1789.77 347.512 1795.31 345.544 1800.73 343.193C1822.58 333.252 1841.33 317.511 1857.23 299.751C1875.7 279.307 1891.75 256.794 1908.34 234.741C1910.89 231.214 1913.24 227.253 1917 224.698V347.92C1902.89 364.761 1888.51 381.703 1870.75 394.889C1849.35 411.486 1823.62 421.548 1796.64 423.868C1741.78 428.595 1686.91 416.201 1635.52 397.904C1605.62 387.274 1576.57 374.497 1546.75 363.738C1524.21 355.817 1500.24 348.61 1476.14 352.111C1460.82 354.472 1446.74 361.905 1436.15 373.219C1419.77 389.369 1409.95 410.809 1403.11 432.454C1394.21 460.87 1389.05 490.232 1381.61 519.057C1371.39 559.586 1356.95 600.115 1331.25 633.591C1316.22 653.217 1297.06 670.082 1274.31 680.125C1246.71 692.417 1215.54 694.87 1185.82 689.912C1146.64 683.473 1110.05 666.684 1075.76 647.186C1005.58 606.912 943.947 554.041 877.353 508.478C858.348 495.32 838.491 483.437 817.914 472.906C791.516 459.337 763.662 448.885 736.421 437.13C715.978 428.365 695.764 419.37 675.781 409.685C654.418 399.157 633.157 387.555 615.703 371.073C586.827 344.215 569.067 308.388 550.514 274.196C535.744 246.7 518.776 219.766 495.343 198.812C469.967 176.237 437.798 162.751 403.91 160.48C372.938 158.283 342.043 163.572 311.915 170.855C265.54 182.973 220.566 199.923 177.729 221.427C140.957 239.315 106.408 261.343 71.5516 282.629C48.5528 296.352 25.1196 309.921 0.178711 320.041V288.021C32.3259 277.8 61.8155 260.985 91.2539 244.784C126.303 224.814 162.442 206.821 199.502 190.89C245.499 171.443 293.209 155.037 342.605 146.042Z" fill="#F8F2D8"></path> <path d="M241.36 216.061C282.63 198.888 325.97 185.14 370.766 181.792C402.786 179.237 436.006 185.677 463.298 203.054C492.762 221.555 513.563 250.687 529.969 280.815C550.106 317.996 566.562 357.759 594.033 390.417C608.731 408.278 626.701 423.17 646.982 434.294C665.483 444.234 685.057 451.9 704.402 459.848C733.048 471.679 762.103 482.591 790.034 496.084C810.238 505.864 829.778 516.962 848.528 529.304C918.623 575.302 982.585 630.243 1054.8 673.047C1088.02 692.57 1123.16 709.794 1160.85 718.738C1196.22 727.196 1234.12 727.247 1268.74 715.39C1308.38 701.77 1340.01 671.411 1363.11 637.194C1387.62 601.418 1402.52 560.148 1415.88 519.134C1423.78 496.135 1431.21 472.446 1443.99 451.568C1454.21 434.984 1469.55 420.903 1488.15 414.847C1502.87 409.966 1518.81 410.86 1533.87 413.569C1552.56 417.397 1570.95 422.581 1588.88 429.081C1638.61 446.176 1687.96 465.189 1739.65 475.41C1766.72 480.521 1794.29 485.223 1821.94 483.281C1848.61 481.629 1874.22 472.233 1895.64 456.245C1903.15 450.981 1909.54 444.311 1916.62 438.485V482.31C1902.08 494.039 1886.21 504.389 1868.45 510.42C1841.36 520.258 1811.79 521.127 1783.56 516.885C1730.25 508.784 1678.78 492.046 1627.68 475.538C1602.12 467.565 1576.44 459.26 1549.84 455.453C1532.2 453.102 1513.17 452.897 1497.07 461.483C1480.42 471.027 1466.53 484.728 1456.77 501.246C1444.2 521.51 1435.28 543.742 1425.36 565.336C1408.01 604.28 1387.59 642.407 1359.31 674.554C1342.31 694.472 1322.09 711.394 1299.48 724.615C1279.03 736.162 1256.52 743.618 1233.22 746.566C1201.43 750.65 1169.15 748.154 1138.36 739.232C1101.95 729.164 1067.99 711.966 1035.79 692.519C965.566 649.716 902.677 596.307 833.246 552.482C814.934 540.787 795.939 530.197 776.362 520.769C749.761 507.992 721.958 498 694.589 486.731C672.945 477.736 650.815 468.996 631.879 454.89C599.144 430.716 573.897 397.726 554.322 362.333C533.879 326.148 519.083 286.514 492.787 253.932C477.71 234.92 458.545 218.744 435.929 209.621C406.746 197.278 373.96 197.304 343.168 202.721C294.206 211.359 247.723 230.678 204.28 254.494C165.719 275.525 130.812 302.408 95.4961 328.371C73.5706 344.394 51.6195 360.442 29.0551 375.672C19.4979 382.035 10.0428 388.449 0 394.148V360.084C43.8255 336.907 83.9711 307.673 124.96 279.972C161.516 254.814 200.512 233.402 241.36 216.061Z" fill="#F8F2D8"></path> <path d="M319.836 230.626C344.598 224.059 370.561 219.97 396.167 223.241C420.014 226.046 442.503 235.824 460.819 251.351C481.416 268.907 496.595 291.88 509.372 315.466C520.974 336.651 531.374 358.5 543.41 379.352C556.805 402.842 572.022 425.246 588.922 446.355C602.977 463.732 617.952 480.649 635.789 494.244C648.105 503.453 661.598 510.973 675.909 516.603C704.018 528.103 732.435 538.657 760.059 551.255C779.821 560.335 799.052 570.53 817.658 581.792C886.91 623.497 948.24 676.496 1017.24 718.456C1051.15 738.9 1087.25 756.43 1125.82 766.089C1177.69 779.199 1234.11 777.256 1283.79 756.532C1307 746.214 1328.41 732.237 1347.19 715.134C1378.88 687.025 1404.28 652.756 1426.59 616.98C1440.95 594.288 1453.91 570.651 1469.8 548.955C1480.64 534.466 1492.8 520.513 1507.54 510.01C1520.88 500.453 1537.7 497.233 1553.85 497.463C1574.98 497.744 1595.78 502.114 1616.25 507.021C1667.21 519.593 1716.96 537.021 1768.68 546.527C1800.68 552.456 1834.38 552.66 1865.53 542.413C1883.85 536.386 1901.1 527.494 1916.64 516.067V535.999C1900.51 546.869 1882.96 555.467 1864.49 561.553C1832.54 571.775 1798.25 572.951 1765.21 568.095C1711.16 559.969 1659.52 540.522 1605.47 532.319C1583.85 529.176 1561.29 527.336 1540 533.495C1521.6 538.81 1506.57 551.383 1493.21 564.696C1474.63 583.479 1459.27 605.072 1443.63 626.282C1418.49 660.678 1392.27 694.64 1360.68 723.388C1331.07 750.527 1296.54 773.423 1257.5 784.156C1198.58 801.121 1135.85 799.389 1077.95 779.199C1039.24 765.885 1003.64 745.16 969.731 722.519C905.513 679.486 846.279 628.761 777.691 592.448C751.933 578.777 724.743 567.993 697.476 557.746C678.822 550.591 659.324 544.713 642.637 533.418C623.216 520.334 607.756 502.37 593.624 483.945C570.333 452.542 548.94 419.774 529.56 385.817C515.019 360.697 502.268 334.504 486.118 310.33C471.654 288.711 453.792 268.344 430.179 256.666C404.267 243.429 373.96 241.564 345.697 246.751C306.446 253.957 269.443 270.338 235.252 290.577C198.275 312.451 165.361 340.254 132.32 367.495C99.2779 394.735 67.3352 422.027 34.038 448.272C22.9475 456.781 12.0614 465.623 0.178711 472.982V435.852C2.45994 434.831 4.62702 433.572 6.64393 432.096C38.51 409.761 68.6896 385.383 99.2524 361.464C134.849 333.789 169.45 304.478 207.832 280.738C242.714 259.222 280.176 241.41 319.836 230.626Z" fill="#F8F2D8"></path> <path d="M323.439 284.035C343.883 277.876 365.451 273.813 386.814 276.548C408.146 279.15 428.2 288.117 444.362 302.281C464.805 319.887 479.729 342.58 493.861 365.246C518.674 406.261 542.286 447.991 566.92 489.107C579.467 509.704 592.295 530.352 608.318 548.47C619.589 561.867 633.532 572.764 649.256 580.464C661.496 586.213 674.682 589.382 687.459 593.701C709.845 601.016 731.717 609.817 752.929 620.047C775.949 631.607 798.012 644.98 818.91 660.04C857.676 687.306 893.912 717.894 931.834 746.31C959.1 766.754 987.338 786.354 1018.72 799.974C1049.1 812.79 1081.43 820.351 1114.34 822.334C1169.46 826.156 1224.75 818.131 1276.51 798.799C1300.83 788.844 1323.65 775.565 1344.33 759.343C1378.68 733.099 1408.22 701.335 1436.53 668.779C1452.22 650.891 1467.5 632.518 1484.55 615.856C1499.19 601.597 1515.21 588.309 1533.58 579.263C1551.43 570.509 1571.05 566.005 1590.93 566.102C1622.95 565.745 1654.41 572.593 1685.48 579.186C1714.84 585.805 1744.64 591.324 1774.92 591.963C1805.6 592.733 1836.19 588.362 1865.43 579.033C1883.52 572.86 1900.77 564.474 1916.8 554.066V566.69C1895.98 579.882 1873.35 589.947 1849.61 596.563C1798.67 610.636 1745.42 614.355 1693.02 607.5C1662.56 603.386 1631.92 597.968 1601.02 600.013C1577.35 601.379 1554.09 606.871 1532.31 616.24C1512.68 624.724 1495.25 637.45 1479.15 651.326C1447.42 678.745 1420.02 710.79 1389.1 738.9C1354.71 770.638 1316.83 799.923 1272.96 817.223C1224.97 835.725 1174.09 845.87 1123.03 851.134C1093.4 854.377 1063.56 855.428 1033.77 854.277C1012.53 853.34 991.659 848.389 972.261 839.686C943.845 826.525 921.715 803.705 900.709 781.243C871.424 750.041 841.014 719.709 807.155 693.439C771.737 665.661 732.23 642.203 688.762 629.553C672.357 624.442 655.21 621.58 639.622 614.221C619.919 605.098 603.846 589.817 590.66 572.746C565.515 539.705 547.882 501.859 527.95 465.649C514.125 440.094 499.457 415.154 483.537 390.903C471.117 372.274 457.804 353.951 441.219 338.721C423.919 322.443 401.201 311.455 377.333 310.611C349.607 309.589 322.443 318.073 297.451 329.496C262.748 345.621 232.109 369.003 202.9 393.381C176.452 415.383 150.821 438.331 125.292 461.381C86.4497 496.135 46.9685 531.093 0.178711 554.501V517.575C2.42609 516.616 4.56723 515.426 6.56726 514.023C46.8663 487.37 82.5399 454.558 119.006 423.05C150.31 395.962 181.23 368.364 214.016 343.04C246.802 317.715 283.524 296.326 323.439 284.035Z" fill="#F8F2D8"></path> </svg> 